<svg id="Layer_1" data-name="Layer 1" xmlns="http://www.w3.org/2000/svg" viewBox="0 0 718.0092 512.7197"><defs><style>.cls-1{fill:#dd3e28;}.cls-2{fill:#ccc;}.cls-3{fill:#333;}</style></defs><title>cover-how-to-check-for-undefined-variables</title><path class="cls-1" d="M506.3113,298.39a70.7986,70.7986,0,0,1,18.4375,5.5875l2.3214-5.5064q-3.2255-1.2457-6.4705-2.4316l-1.6046,5.8206a238.9051,238.9051,0,0,0,30.4583,8.1757l.7378-5.4512-31.1276-3.6793c-3.1139-.368-3.2247,4.1567-.6916,5.1109,10.5818,3.9862,21.1116,8.1133,31.66,12.1862v-5.127c-8.9575,1.2914-17.8759-.13-26.72-1.5845-3.3654-.5535-4.8948,4.3907-1.44,5.2238l14.9348,3.6012a2.6855,2.6855,0,0,0,1.4266-5.1747c-18.8418-5.8128-37.85-11.3574-57.6258-12.6464-2.777-.181-3.1946,3.9981-.642,4.7438,13.36,3.9027,26.6814,7.9243,40.0044,11.95l.6541-4.8333a180.9873,180.9873,0,0,1-25.0867-2.0594,2.4194,2.4194,0,0,0-1.2851,4.6616,139.65,139.65,0,0,0,23.1255,7.3182c2.9841.6525,4.9008-3.3986,2.123-5.0356-4.46-2.6281-9.1271-4.9244-13.74-7.27l-1.842,4.369a198.3853,198.3853,0,0,0,21.9611,2.5651c2.1861.1022,3.6845-3.08,1.8855-4.5522a86.9636,86.9636,0,0,0-23.3576-13.4957l-.699,5.165a41.7715,41.7715,0,0,1,17.8431,3.9548l2.0949-4.9692q-13.2187-2.9142-26.4408-5.8137a2.4529,2.4529,0,0,0-1.303,4.7265,224.2317,224.2317,0,0,0,37.8745,9.1414c3.318.4843,4.7986-4.1086,1.4206-5.1529q-2.2563-.6975-4.5126-1.3945c-3.2-.9889-4.4676,3.8787-1.3708,4.972q2.2314.7878,4.4628,1.5754l.71-5.2483a195.4093,195.4093,0,0,1-37.2818-8.62l-1.303,4.7265q13.149,3.1658,26.2983,6.33c2.8539.6853,5.0164-3.6429,2.095-4.9692a49.1681,49.1681,0,0,0-20.5875-4.5186c-3.1656-.01-3.3065,4.1109-.699,5.1649A91.8935,91.8935,0,0,1,524.5339,318.54l1.3459-4.9691a117.3671,117.3671,0,0,1-20.69-1.8419c-2.5955-.5061-4.2442,2.8965-1.8419,4.3691,4.4085,2.7023,8.8033,5.476,13.3722,7.9l2.1229-5.0356a107.2142,107.2142,0,0,1-23.3052-6.6665l-1.2851,4.6616a171.6489,171.6489,0,0,0,26.3718,2.319c2.7984.0207,3.31-4.0555.6542-4.8333-13.3563-3.9121-26.7092-7.8271-40.0287-11.8623l-.642,4.7437c19.328,1.4526,37.801,7.2483,56.1992,12.9911l1.4266-5.1747-14.9213-3.65-1.44,5.2238c9.8583,1.6546,19.607,2.9793,29.5736,1.4877,2.8763-.43,2.1431-4.3128,0-5.127-10.5672-4.0145-21.1565-7.9761-31.69-12.0771l-.6917,5.1109,31.1276,4.0258c3.095.4,3.7767-4.81.7377-5.4513A229.3506,229.3506,0,0,1,520.6,296.04c-3.684-1.3263-5.18,4.4463-1.6046,5.8206q3.2269,1.24,6.4733,2.4211c3.173,1.1538,5.4439-4.1057,2.3214-5.5064a64.54,64.54,0,0,0-20.7682-5.6331c-2.97-.2725-3.6818,4.736-.71,5.2483Z"/><path class="cls-1" d="M427.18,263.8447a41.5837,41.5837,0,0,1,27.1486.4282l.578-4.2706a125.9578,125.9578,0,0,0-28.7436.9471c-2.1474.3029-2.1444,3.3815-.5684,4.349a69.4014,69.4014,0,0,0,29.0191,9.8872v-5.2528l-11.4656.6862a2.66,2.66,0,0,0-.7037,5.2c5.834,1.9983,11.6647,4.005,17.5143,5.9571l.7022-5.1882a94.0031,94.0031,0,0,1-25.9-2.59l-1.3177,4.78c11.06,1.5458,22.0969,3.2565,33.14,4.92,3.2116.4838,4.6323-4.401,1.3627-4.943-7.044-1.1676-14.1211-2.1462-21.1841-3.1915a2.3484,2.3484,0,0,0-1.2474,4.5247c6.6715,2.7086,13.272,5.5691,19.8776,8.4338l1.2166-4.4919a222.2254,222.2254,0,0,1-24.9105-1.7924c-2.6255-.391-3.8411,3.5209-1.1248,4.08a169.8,169.8,0,0,0,38.9827,3.6145c2.6916-.0759,2.8219-3.4582.595-4.3959a231.1322,231.1322,0,0,0-35.3691-11.3339l-.555,4.1c7.5173.6921,15.0226,1.4454,22.5609,1.8584,2.13.1166,3.1078-3.1893,1.118-4.1276a121.2084,121.2084,0,0,0-27.06-9.0362v3.2615a6.4047,6.4047,0,0,1,4.8083.4313l.8887-3.2238-4.1483-1.0956-.947,3.4351a78.6134,78.6134,0,0,0,24.6241,2.3781c1.8461-.136,3.2834-2.5461,1.6467-3.9755a28.3584,28.3584,0,0,0-6.7074-4.438v3.9746a6.8374,6.8374,0,0,1,6.9761-.583v-4.8532c-1.5533.4188-3.1.8572-4.6476,1.2959-3.0737.8713-1.782,5.5979,1.3209,4.7913,1.5571-.4048,3.1129-.8093,4.6647-1.234a2.5387,2.5387,0,0,0,0-4.8532,11.7326,11.7326,0,0,0-10.6373,1.4616c-1.3323.8716-1.6521,3.183,0,3.9746a23.8144,23.8144,0,0,1,5.7372,3.7569l1.6467-3.9755a91.507,91.507,0,0,1-23.6771-1.1557c-2.2326-.4306-3.2016,2.9611-.947,3.4351l4.2066.8843a1.6731,1.6731,0,0,0,.8887-3.2238,12.3936,12.3936,0,0,0-6.5961-.469c-1.6615.2915-1.5633,2.9,0,3.2615a106.4086,106.4086,0,0,1,25.7231,9.6l1.1179-4.1276c-7.5066-.7406-15.0324-1.1413-22.5609-1.6032-2.3321-.1431-2.8621,3.6139-.5549,4.1a179.5268,179.5268,0,0,1,34.7545,11.3986l1.13-4.17a179.1542,179.1542,0,0,1-37.8579-3.2186l-1.1248,4.08a204.3355,204.3355,0,0,0,26.0353,2.5335c2.9166.04,3.0092-3.7683.6408-4.7349-6.6663-2.7206-13.3263-5.4393-19.9272-8.3162l-1.8078,4.2882c7.0187,1.2214,14.03,2.51,21.0688,3.61l1.3627-4.943c-11.0649-1.562-22.1372-3.077-33.1849-4.7571-3.068-.4666-4.4873,3.9687-1.3177,4.78a99.0972,99.0972,0,0,0,27.2174,3.0931,2.6543,2.6543,0,0,0,.7021-5.1883c-5.8257-2.0231-11.67-3.9916-17.5111-5.9687l-.7038,5.2,11.4656-.728a2.6281,2.6281,0,0,0,0-5.2528,62.955,62.955,0,0,1-26.6172-8.7435l-.5684,4.349a132.5344,132.5344,0,0,1,27.4785-1.1877c2.5147.1345,2.86-3.5688.578-4.2707a42.9666,42.9666,0,0,0-29.0273,1.1431c-1.585.63-.9778,3.172.7227,2.6217Z"/><path class="cls-2" d="M583.03,412.8144q-51.3261,1.15-102.6085-1.95c-4.9413-.2989-6.1892,7.9657-1.186,8.7634,32.47,5.1769,64.9051,10.7522,97.4364,15.5284,10.41,1.5283,24.5184.3221,25.8317-12.8987.392-3.9449-1.21-9.3036-5.3969-10.7136-2.8391-.9561-7.2713-.1363-10.233-.1336l-12.848.0115c-3.8044.0035-4.9343,6.24-.93,6.8719,6.8116,1.075,13.377,3.8571,19.5685,6.8028l.9541-7.3007a37.6694,37.6694,0,0,1-12.2062.7356c-5.0159-.4664-6.2217,8.0142-1.2,8.865,5.9279,1.0042,11.8041,2.1122,17.771,2.8494V420.1534l-41.3463-3.9763c-5.4164-.5209-6.4064,8.0795-1.27,9.3862l22.836,5.81,1.23-9.088q-23.3121-1.7139-46.6088-3.6016c-4.991-.3992-6.2379,8.1588-1.1963,8.8393l45.7564,6.176L578.58,424.86a765.166,765.166,0,0,0-78.6291-3.5774c-4.891.0293-6.3474,7.9635-1.1963,8.8393a243.7194,243.7194,0,0,0,38.5634,3.4947c5.9685.0572,5.5571-8.2725,0-9-39.18-5.1287-78.4063-7.2569-117.8486-9.02v6.766q38.0788-.7093,76.1149,1.596v-7.2568q-43.6789,1.3064-87.3727.0072v7.82c19.054-.8559,38.1014-1.8706,57.1506-2.8286,4.9016-.2466,4.9651-7.6021,0-7.6658-20.2054-.2591-40.4068-.5339-60.6092-.9666-5.021-.1075-4.995,7.59,0,7.7842l35.0257,1.36c5.3372.2072,5.235-7.8478,0-8.2359q-28.3148-2.0994-56.3394-6.8957l-1.15,8.5q59.199-1.06,118.3916.9335c5.7406.1934,5.516-8.2287,0-8.782q-47.3828-4.7525-95.01-6.0938c-4.9693-.1388-6.1911,7.7444-1.19,8.7961a257.482,257.482,0,0,0,59.7083,5.4562c4.7952-.1237,6.2285-7.6367,1.1743-8.6769q-39.309-8.0905-78.9562-14.4412c-5.5162-.8891-7.915,7.5294-2.3339,8.4659l26.9738,4.5264,1.1848-8.7547c-60.0939-3.9588-120.49-7.8262-180.5855-1.7913-6.1478.6173-6.4386,9.7981,0,9.8019q72.6972.0428,145.0788,7.0533V400.811q-47.751,2.276-95.6265,1.2492c-7.6-.1579-7.5707,11.525,0,11.7888q44.1865,1.5394,88.358-1.13c7.2425-.438,7.3672-11.5755,0-11.3667l-83.859,2.3771c-7.0838.2009-7.0314,10.593,0,10.9663q54.3045,2.8825,108.7,1.0939c6.7123-.2209,6.7391-10.2813,0-10.447a423.8732,423.8732,0,0,0-77.7429,5.3733c-5.7645.9263-4.1711,9.8337,1.3431,9.9247q55.3519.9141,110.63-2.787c6.2712-.42,6.4144-9.9509,0-9.8673q-79.4706,1.036-158.7736,6.9405v9.4965l49.4432-3.7207c5.8966-.4437,6.0572-9.4341,0-9.3048q-28.1877.6021-56.2624,3.2849c-5.7195.5467-5.92,9.3867,0,9.0868q88.6578-4.49,177.1034-12.2758c5.305-.467,5.4626-8.6663,0-8.4q-107.7933,5.2494-215.7191,6.91v7.5312q35.8839-2.4731,71.7719-4.8787c4.6786-.3074,4.7791-7.4519,0-7.3577q-39.2571.7738-78.3653,4.4871c-4.7345.45-4.9346,7.4975,0,7.5264a582.3971,582.3971,0,0,0,81.2454-5.2824c4.2764-.5763,3.2878-7.853-1.0234-7.5618q-39.2556,2.6515-78.5119,5.3c-4.1322.2722-5.6953,6.9632-1.0468,7.7344q3.8762.643,7.7553,1.2659l1.0413-7.6941c-18.6909.8615-37.3115,2.7112-55.8511,5.2167-3.7142.502-3.6471,6.8586,0,7.4336l26.1305,4.12,1.07-7.9065-28.4852,2.1055V430.46c28.52-2.5714,56.93-6.3075,85.2134-10.7731,4.82-.761,3.4863-8.2227-1.1228-8.2969a216.47,216.47,0,0,0-43.2318,3.7016c-4.6863.874-3.5054,8.2127,1.1083,8.19l60.3692-.3022v-8.1829q-40.3443,2.0518-80.668,4.3882l.9841,7.2714,18.5335-3.1578c4.0556-.691,2.8636-6.7642-.9357-6.914-11.7585-.4638-23.5255-.8334-35.2791-1.3985v6.3709q38.1776-3.1637,76.0618-8.9606c3.5791-.5464,2.3538-5.6762-.8035-5.9373a334.8212,334.8212,0,0,0-70.3261,2.017c-4.2427.545-4.5394,6.7229,0,6.8436l8.0013.2125v-7.2561c-25.1.261-50.1976,1.0805-75.2975,1.6949-5.2777.1291-5.2382,7.9022,0,8.17l35.8675,1.8312c4.8675.2485,5.1021-6.4481,1.079-7.9733a158.2676,158.2676,0,0,0-35.4036-8.836c-4.5687-.6085-5.3558,6.7735-1.0717,7.9185,3.8731,1.0351,7.7275,2.1333,11.5853,3.2239l2.2088-8.012-21.2539-4.4c-5.1877-1.074-11.1972-3.8452-14.7951,1.5081-7.3363,10.9157,7.7879,17.8572,15.6582,20.6639,24.6321,8.7842,52.1993,6.5209,77.6185,3.1192l-1.5457-11.4216c-9.6612,1.822-19.3927,3.3626-29.1695,4.42-3.4518.3733-9.5144,2.0374-12.641-.1378-2.823-1.9641-4.2883-4.5981-7.8639-5.5561-3.6106-.9673-7.1788-.1238-10.8052.122-4.1657.2823-5.8042-1.4779-8.7034-4.2383-3.8584-3.6738-11.2237-5.769-14.6523-.2371-3.0444,4.9119,3.404,12.7187,6.7492,16.1543a43.1412,43.1412,0,0,0,16.9009,10.2425c16.1148,5.5985,34.2911-.1121,49.8072-4.9535,6.3146-1.97,3.6192-11.9288-2.7415-9.9441-12.3671,3.8588-25.718,8.3279-38.8435,6.3043-9.9329-1.5314-20.2668-6.505-24.27-16.3171l-.4383,3.35c.1322-.1894,5.5826,5.4879,6.32,6.0279a14.8843,14.8843,0,0,0,8.4869,2.6975c2.6733.1129,5.7106-.7916,8.3249-.19,3.3782.7776,4.9581,4.7524,8.0769,6.365,6.4529,3.3365,15.2173,1.3815,22.0772.6854,8.8621-.8993,17.6911-2.1183,26.4771-3.5813,6.393-1.0646,4.9811-12.1537-1.5458-11.4216-15.185,1.7034-30.3763,3.8952-45.6967,3.5692a106.8823,106.8823,0,0,1-22.6535-2.6949,85.7943,85.7943,0,0,1-9.9246-2.9982c-.4769-.1773-8.9549-3.7325-7.4277-4.8752l-3.5348.4624,29.8008,5.2869c5.175.918,7.4773-6.6844,2.2088-8.012-3.8881-.98-7.7771-1.9511-11.6508-2.9864l-2.1433,7.7745a155.5567,155.5567,0,0,1,34.3172,8.7458l1.0791-7.9733-35.8675-1.8826v8.17c25.1272-.579,50.2137-1.0533,75.2975-2.6085,4.62-.2864,4.7065-7.3738,0-7.2561l-8.0013.2.91,6.7213a261.9725,261.9725,0,0,1,69.4164-2.693l-.8036-5.9373q-37.0737,5.4986-74.4547,8.419c-4.0623.3191-4.1338,6.1636,0,6.3709,11.7633.59,23.5208,1.3759,35.2791,2.0673l-.9357-6.914-18.63,2.8069c-4.1361.6232-3.14,7.4359.9841,7.2714q40.3452-1.6092,80.668-3.6089c5.23-.2525,5.3-8.1958,0-8.1829l-60.3692.1465,1.1084,8.19a205.1847,205.1847,0,0,1,41.0151-3.2946l-1.1229-8.2968c-27.5569,4.2785-55.23,7.6405-82.9677,10.5005-5.3129.5478-5.4327,8.89,0,8.4186l28.4852-2.4739c4.1422-.36,5.8943-7.209,1.07-7.9064l-26.2211-3.79v7.4336a492.4892,492.4892,0,0,1,53.8017-4.8162c4.1893-.1571,5.5921-6.9192,1.0413-7.6942q-3.8712-.6593-7.7444-1.3054l-1.0467,7.7343q39.2513-2.8021,78.5119-5.4755l-1.0234-7.5617a568.2048,568.2048,0,0,1-79.1986,5.18v7.5264q39.0858-3.7963,78.3653-4.6558v-7.3577q-35.8806,2.4342-71.7719,4.7052c-4.79.31-4.8935,7.5857,0,7.5312q107.9027-1.2021,215.7191-6.0409v-8.4q-88.436,7.4415-177.1034,11.5892v9.0868q28.07-2.5737,56.2624-3.0669v-9.3048l-49.4432,3.529c-6.0607.4326-6.1086,9.9319,0,9.4965q79.2743-5.65,158.7736-6.57v-9.8673q-55.2407,3.5813-110.63,2.5492L319.24,420.46a403.667,403.667,0,0,1,75.0566-4.6705v-10.447q-54.3627,1.5294-108.7-1.6132v10.9663l83.859-1.9767V401.3518q-44.1429,2.4586-88.358.7084V413.849q47.8722,1.2232,95.6265-1.7746c7.2815-.4515,7.2069-10.6723,0-11.2634q-72.3579-5.9346-145.0788-5.5918v9.8019c60.0637-6.3283,120.4746-2.7608,180.5855.9033,4.9382.301,6.18-7.9416,1.1848-8.7547l-27.0095-4.3968-2.3339,8.4659q39.6666,6.1947,78.9415,14.4944l1.1743-8.6769a254.1617,254.1617,0,0,1-57.3274-5.2577l-1.1905,8.7962q47.6012,1.227,95.01,5.92v-8.782q-59.1765-1.9295-118.3916-.8063c-4.6748.0887-6.1326,7.6514-1.15,8.5a548.3277,548.3277,0,0,0,58.64,6.786v-8.2359l-35.0257-.9084v7.7842c20.2057.1722,40.4057.5023,60.6092.8482v-7.6658c-19.0507.8762-38.105,1.6959-57.1506,2.6743-5.0044.2571-5.0616,7.7022,0,7.82q43.6877,1.0174,87.3727-.5705c4.6831-.17,4.6575-7.0045,0-7.2568q-38.0253-2.06-76.1149-1.1052c-4.36.1093-4.3507,6.5995,0,6.766,39.3776,1.5061,78.7977,6.1421,117.8486,11.2539v-9a228.5159,228.5159,0,0,1-36.1708-3.1732l-1.1963,8.8392A765.166,765.166,0,0,1,578.58,433.86c4.9942.4855,6.2268-8.16,1.1963-8.8393l-45.7564-6.176-1.1963,8.8392q23.3109,1.8646,46.6088,3.8548c5.2722.4558,6.1709-7.7627,1.23-9.0879l-22.7552-6.1029-1.27,9.3862,41.3463,4.5121c5.5982.6109,6.9769-9.143,1.3415-9.9125-5.9577-.8135-11.9236-1.2566-17.9127-1.8019v9.0262a45.3025,45.3025,0,0,0,14.33-2.0585c3.9709-1.24,3.5955-6.3211,0-7.7033-6.8134-2.6192-13.8218-4.153-20.7863-6.249l-.93,6.8718,22.0251.9268-2.8084-1.1632c2.5127,2.42.38,6.3094-2.1949,7.8013-3.9321,2.2782-9.4185,1.2167-13.6373.5664-10.7654-1.66-21.5079-3.4857-32.26-5.2282l-63.5425-10.298-1.1861,8.7635q51.24,3.2308,102.6085,2.2144c5.905-.117,5.923-9.32,0-9.1875Z"/><path class="cls-2" d="M389,418.9687a61.1834,61.1834,0,0,0-12.3923-.3657,2.4217,2.4217,0,0,0,0,4.84c9.76.5509,19.4821.6437,29.2557.7061,3.3737.0215,4.3651-5.5892.8234-6.0842-8.3461-1.1666-16.7069-1.9608-25.1282-2.3144v6.4584c8.3444.0554,16.6832.2123,25.0259.3879,4.6326.0974,4.5929-6.9545,0-7.1721a145.8791,145.8791,0,0,0-29.4657,1.9941c-3.9258.6158-2.7517,6.5219.903,6.6724,12.9694.5339,25.8485.4372,38.7018-1.4593,3.05-.45,2.2956-5.4252-.7228-5.34-12.6664.3556-25.3192.789-37.979.006l.903,6.6723a193.1608,193.1608,0,0,1,27.66-1.373V415.425c-8.3428.1548-16.6816.2911-25.0259.3258-4.1647.0173-4.1507,6.329,0,6.4584q12.2048.3805,24.3048,1.94v-6.1949c-9.7733.0432-19.4948.1168-29.2557.6485l.6434,4.7538A69.4079,69.4079,0,0,1,389,421.0312a1.032,1.032,0,0,0,0-2.0625Z"/><path class="cls-2" d="M546.7011,426.0848q1.3.2246,2.5972.4679l.8561-3.1054c-4.56-1.1834-9.37-.7061-14.0308-.6069a2.4269,2.4269,0,0,0-.6421,4.7441,83.8438,83.8438,0,0,0,18.2,3.8274v-4.7407c-4.2934-.2783-8.4951.0745-12.7813.1924a2.5755,2.5755,0,0,0-1.2893,4.76,27.5922,27.5922,0,0,0,9.62,3.7456c4.3368.7468,6.2676-5.7761,1.8461-6.6964l-10.13-2.1084c-4.4906-.9347-6.3819,6.0176-1.8941,6.87l10.1782,1.9344.9231-6.82a26.73,26.73,0,0,1-8.5746-1.5943v4.9266a41.58,41.58,0,0,1,12.1022-.47c3.0754.2148,2.9834-4.4283,0-4.7407a78.2358,78.2358,0,0,1-16.9162-3.7445l-.642,4.7441c4.6667-.076,9.5112.2379,14.0308-1.1181a1.6117,1.6117,0,0,0-.8561-3.1054q-1.2969.2434-2.5972.4679a1.1332,1.1332,0,0,0,0,2.17Z"/><path class="cls-2" d="M248.13,404.8717a9.946,9.946,0,0,0-4.7558-2.9168c-2.9412-.874-3.8165,4.073-.5745,4.2448l11.4217.6054c2.8065.1487,3.9828-4.0866,1.4527-5.3635a20.2243,20.2243,0,0,0-7.2481-2.0641c-3.2973-.3606-3.2343,4.7467,0,5.1388,8.5021,1.0308,17.1638,2.8056,25.62,4.254l1.0277-7.5934c-7.8467-.1721-15.6216-.2332-23.4478-.958v7.5159c5.0832.09,10.1669.396,15.246.6186,5.6361.2471,5.484-8.1913,0-8.673-8.4631-.7433-17.231.4062-25.5434,1.9786-4.4257.8371-3.0341,7.1868,1.01,7.46,5.3207.359,10.6418.7828,15.9682,1.0452l-.8852-6.54-3.2556,1.3516c-3.4954,1.451-2.2835,6.595,1.595,5.7856l3.4309-.7159c3.0687-.64,3.2835-5.9605,0-6.4213-5.6055-.7867-11.2347-1.4146-16.8533-2.1v7.5954c8.2428-1.1034,16.2554-.9285,24.5338-.7653V399.68c-5.0792.196-10.1634.4749-15.246.5385-4.941.0618-4.7088,7.0055,0,7.5159a158.8306,158.8306,0,0,0,23.4478,1.1736c4.9765-.202,4.9538-8.0568,0-7.7315-8.3271.5467-17.8383.2639-25.9646-1.7076l-1.3661,4.9552a18.1243,18.1243,0,0,1,5.0258,1.9876l1.4527-5.3634-11.4217.829,1.0907,4.027a6.5243,6.5243,0,0,1,4.107-.7129.19.19,0,0,0,.1326-.32Z"/><path class="cls-2" d="M163.6973,411.9682c-4.5674,1.0184-9.2826,2.4162-13.9727,2.1453-4.22-.2437-8.4731-.1943-12.6705-.7144V418.78c13.1682,1.6077,26.3231,3.7246,39.5313,4.9554V414.48a80.9673,80.9673,0,0,0-14.1306-.0109v7.15a101.0464,101.0464,0,0,1,23.263,3.7841l1.3088-9.67c-2.4194.26-4.81.6634-7.2107,1.055-5.107.833-3.7417,8.81,1.1962,8.8392,2.0073.0117,4.0093.051,6.0145-.0479,6.3793-.3146,6.2873-9.3491,0-9.8463-8.1558-.6449-16.3885-1.21-24.5718-1.2638-3.9758-.0259-4.9283,6.0727-.95,7.0224a87.0538,87.0538,0,0,0,15.081,2.2431c5.9509.3476,5.9273-8.9018,0-9.2546-13.1439-.7824-26.37-.6784-39.5313-1.0813-3.4725-.1063-3.4458,5.2114,0,5.3805,9.3455.4585,18.0269-3.2674,26.8426-6.0882a.3753.3753,0,0,0-.1994-.7232Z"/><path class="cls-2" d="M351.143,286.563a80.21,80.21,0,0,0,14.5215-4.3973c5.5542-2.3044,10.431-5.4233,16.182-7.1107l-1.571-5.6985c-7.717,3.2089-14.1207,9.2989-20.8028,14.2031-7.091,5.2044-14.2867,10.3343-21.5291,15.3239-15.0293,10.3541-31.2018,17.4509-48.4915,23.1175-36.6441,12.01-74.0145,21.7934-111.5011,30.78-20.0063,4.796-40.0655,9.86-60.4654,12.4687-4.0005.5116-6.2189,4.7544-3.3145,8.002,6.7522,7.55,16.161,6.6693,25.32,5.3484,9.7559-1.407,19.388-3.44,29.0162-5.5285,19.8687-4.31,39.585-9.1325,59.15-14.6606q29.3321-8.2875,58.2476-17.9637c18.2558-6.111,36.1832-12.9411,52.3192-23.62a165.3623,165.3623,0,0,0,24.8656-19.95c7.0514-6.9331,15.9037-14.3121,20.522-23.18,1.7571-3.3738-3.0591-6.2046-5.1028-2.9827-5.5071,8.6816-17.9567,12.6744-27.566,15.1254-.4707.12-.27.82.1994.7232Z"/><path class="cls-2" d="M380.3452,366.5216c-19.3248,3.6368-36.7176,10.5187-54.5863,18.4518-2.64,1.1721-1.7087,5.2244.7721,5.9082,5.3835,1.484,11.24,3.0761,16.8657,2.1546,5.8162-.9528,10.0446-4.5523,14.2475-8.401,8.4387-7.7277,20.358-8.8576,29.1509-16.13,3.4822-2.88-1.0237-8.57-4.7986-6.2192a242.8534,242.8534,0,0,0-20.49,13.9253q-4.6608,3.6068-9.1061,7.4765c-2.43,2.1272-5.7072,6.74-8.7717,7.5226l3.6024.4712-.8992-.3831c-3.5373-1.5075-8.8987,1.9738-6.0286,6.0285,6.3383,8.9544,15.2032-3.9546,19.9115-8.3294a163.3775,163.3775,0,0,1,25.7793-19.8732l-3.9972-6.8384c-7.6384,5.7761-17.6869,6.65-25.4589,12.26-3.6445,2.63-6.4687,6.4871-10.3471,8.7638-5.3422,3.1359-12.1153,2.2113-17.9408,1.3385l.7722,5.9082c15.8953-9.4878,34.5662-15.5471,52.52-19.695,2.8459-.6575,1.6194-4.8691-1.1963-4.3392Z"/><path class="cls-2" d="M491.236,365.3059c7.9475-8.1315-2.2842-17.6366-9.8328-21.1053-9.7247-4.4688-22.108-4.5191-31.7023.3076-8.2353,4.143-16.9472,14.8133-12.3962,24.5313,2.1573,4.6065,7.1976,6.0238,11.7247,7.4376,5.5654,1.7381,11.4851,3.0851,17.3512,2.6008,5.2016-.4294,10.958-2.2616,14.3821-6.4315a10.1329,10.1329,0,0,0-1.2176-14.2962c-3.9488-3.5479-9.7131-5.0215-14.5341-6.9425-5.5836-2.2249-11.3864-5.06-17.535-5.0681-10.7831-.015-16.3687,10.4664-12.6424,20.04,4.0583,10.4267,17.1034,14.0187,27.01,15.812,10.6964,1.9363,23.4041,1.8113,26.3184-11.1414,2.3454-10.4241-5.2854-19.2643-14.4831-22.8009-9.3786-3.6061-22.9318-4.1081-27.54,6.72-4.1668,9.7915,2.2059,20.0874,11.6489,23.5171,9.3682,3.4025,26.0154.3936,30.8282-9.359,5.507-11.159-8.1476-21.1191-17.3345-23.9222-11.2677-3.438-19.5281,3.69-20.9757,14.703-.6454,4.91-1.2288,10.7131,1.7956,14.9861,3.3956,4.7975,10.8526,6.3969,16.2418,7.3266,9.1946,1.5862,28.41,1.8626,27.03-12.36-1.1457-11.8114-20.399-17.5025-29.7053-13.22-12.312,5.6658-3.8594,23.8207,8.0147,22.127,5.5495-.7916,8.9077-6.892,5.5751-11.7541-3.563-5.1982-11.6924-5.885-17.3734-6.2687-3.1707-.2142-5.5515,3.2939-4.71,6.1834,2.1543,7.4014,8.7731,11.28,16.363,9.4686,5.7056-1.362,16.2087-6.446,14.3425-13.7836-1.7248-6.7814-13.5968-9.1007-19.3694-9.785-6.5616-.7777-17.11-.89-20.4487,6.2106-3.1629,6.7277,2.0963,13.0873,8.2982,15.2639,6.5646,2.304,15.0547,2.5518,20.729-1.96,5.1047-4.0591,7.4911-11.6957,3.3372-17.2516-3.7847-5.062-11.9976-6.18-16.1831-.9916a4.8387,4.8387,0,0,0-.7283,5.6443,13.1609,13.1609,0,0,0,5.68,5.3459c3.6325,1.79,7.4353-2.6446,4.4307-5.7424a4.2319,4.2319,0,0,1-1.5974-3.1925l-1.1979,4.5317c1.0668-1.0118,1.8532.627,1.9364,1.4026.226,2.1055-2.9009,3.5491-4.3988,3.9659-1.8734.5214-11.156.5928-11.4347-2.3422-.32-3.3729,19.8626.7515,21.2012,3.0093l-.5375-4.1087.4439-.3608q-1.0322.6474-2.091,1.25a17.9991,17.9991,0,0,1-3.8115,1.8238c-1.27.3678-5.0382.8489-5.5428-.9951l-4.71,6.1835a32.8361,32.8361,0,0,1,5.4679.8846,23.0465,23.0465,0,0,0,3.2792,1.0137c6.4535-2.151-6.913-6.594.9446-7.3434,2.221-.2118,14.5372,2.6179,13.5169,6.2042-.8718,3.064-11.7486,1.9037-13.6468,1.7157a32.2161,32.2161,0,0,1-9.5153-2.0926c-3.85-1.72-3.5045-4.6285-2.9291-8.4066.7917-5.1983,2.7251-9.746,8.8357-7.7543,3.0658.9993,13.3254,6.5637,10.6826,10.7248-1.1372,1.7906-5.9017,3.2325-7.6451,3.7507a17.4413,17.4413,0,0,1-9.1525.5681c-4.6687-1.1487-9.3779-5.4031-7.2489-10.6164,3.6346-8.9,22.39-.61,23.044,7.3336,1.0117,12.2808-20.3421,6.02-26.7185,3.6351-4.5068-1.6857-9.8656-5.0059-9.5459-10.5452.453-7.8514,10.1877-4.0319,14.36-2.1264,2.7337,1.2484,5.43,2.5886,8.1424,3.8818,2.14,1.02,5.6074,1.9438,7.2659,3.6132.3173.3194,1.4387.73,1.4016,1.317-.0533.8428-2.9219,1.7387-3.5851,1.97a20.5876,20.5876,0,0,1-8.8314.7093,56.7034,56.7034,0,0,1-10.0037-2.2509c-2.7614-.8-5.3045-.8538-5.2879-4.3341.03-6.2838,6.5373-10.8613,11.8961-12.7138a31.9943,31.9943,0,0,1,19.0925-.3356c6.7624,1.9349,16.8912,6.7722,14.7483,15.5318a.4724.4724,0,0,0,.7835.4561Z"/><path class="cls-2" d="M401.7447,251.1641A18.0693,18.0693,0,0,0,413.2082,263.96c2.8869,1.02,5.1634-2.033,4.6235-4.6235-.29-1.3932-.8973-3.6312-.3534-5.0323.7335-1.8895,1.9069-1.6,3.6959-2.1108,2.7111-.7744,4.7127-2.1238,5.3917-4.9765.5329-2.2389-1.1284-5.2384-3.7757-4.9564a73.6128,73.6128,0,0,0-26.4145,7.8922c-4.7832,2.4809-.5852,9.2486,4.16,7.117,1.2449-.5592,9.9991-3.726,9.2094-5.29l-.3913-2.991-.2212.9021c-.82,3.3466,3.5922,6.4342,6.1111,3.5573,2.6706-3.05,1.9513-7.626-2.206-9.036-4.9933-1.6935-12.4056,3.7464-16.662,5.7406l4.16,7.117a62.8554,62.8554,0,0,1,22.2545-7.1782l-3.7756-4.9564c.1821-.8235-3.2817.3843-4.1186.8a8.6111,8.6111,0,0,0-3.8956,3.89c-1.8137,3.5347-1.2556,7.7867-.4173,11.509l4.6235-4.6234c-4.2631-1.2449-7.2079-3.2983-9.2433-7.3262-1.2-2.3754-4.87-.7045-4.2186,1.7785Z"/><path class="cls-2" d="M608.9936,425.7988c4.5474,3.121,11.7941,3.6814,17.1488,4.6889l.57-4.2148c-5.8218-.518-10.1075,3.0838-14.7981,5.9463-4.7228,2.8821-11.5477,2.1506-15.2722,6.3657a2.5256,2.5256,0,0,0,.501,3.8877A24.1742,24.1742,0,0,0,607.13,446.83l-.5645-4.3194c-5.1044,2.2962-.8972,7.475,2.8357,8.1406V446.03a60.3472,60.3472,0,0,1-17.3966,3.2383c-1.7935.1151-2.4171,2.9045-.4486,3.3147a33.5828,33.5828,0,0,0,19.119-1.9322c1.9531-.7435,2.5791-4.1876,0-4.6208q-1.2308-.7023-1.724.5614c1.7982-.8307,1.3752-3.96-.5645-4.3194a17.7022,17.7022,0,0,1-8.2431-3.6872v3.5006c1.9619-2.0478,4.8737-1.64,7.4152-2.1719a18.88,18.88,0,0,0,5.9592-2.3579c4.2886-2.606,7.77-7.1034,13.1952-6.9913,2.8292.0584,2.6683-3.9749,0-4.2915-5.3839-.6389-12.4538-2.27-17.6953-.6569a.1013.1013,0,0,0-.0239.1828Z"/><path class="cls-2" d="M604.9933,447.0336c-20.3389-.78-40.7413-.5523-61.0772.25a1.8431,1.8431,0,0,0,0,3.6837c10.8422,1.2078,21.7143,2.04,32.5858,2.94v-4.0016a326.3254,326.3254,0,0,0-37.5014-.394c-1.9192.0849-1.9417,3.0129,0,3,12.5118-.0831,25.0261.45,37.5014,1.3956,2.5768.1954,2.5425-3.7781,0-4.0016-10.8579-.9545-21.7046-1.977-32.5858-2.6222v3.6837a507.0662,507.0662,0,0,1,61.0772-1.6837c1.45.0422,1.4445-2.1947,0-2.25Z"/><path class="cls-2" d="M495.0253,448.91,491.66,448.43q-2.27-1.0431-1.4874.1807c.8681-.7293,5.639.023,6.8813.0281l14.7458.06c1.2584.0052,1.6263-2.0611.307-2.2684-40.6134-6.3818-82.3592-6.4223-123.3606-6.4893a.9467.9467,0,0,0,0,1.8921q57.88,4.0467,115.8421,3.2172c2.7251-.0415,2.6424-3.9447,0-4.1756-55.3692-4.8384-110.9583-5.0055-166.4412-2.25a1.92,1.92,0,0,0,0,3.8372q61.8788,1.5861,123.7779.1314c3.1778-.0747,3.1883-4.8947,0-4.9437-46.3517-.7119-92.6832-3.0351-138.9046-6.55-2.1917-.1666-2.1157,3.1344,0,3.375a1302.4473,1302.4473,0,0,0,138.9046,8.1184V437.65q-61.8686,2.0079-123.7779.9751v3.8372c55.4512-3.25,111.0971-1.8006,166.4412,2.5887v-4.1756q-57.8868,1.3478-115.8421-.9337v1.8921c20.5306-.5721,41.1427.1616,61.64,1.3565,20.5509,1.198,40.923,3.733,61.4132,5.5091v-2.31l-23.5932,1.55a.3322.3322,0,0,0,0,.6639l6.7939.4908c.1039.0076.13-.1691.0249-.1841Z"/><path class="cls-2" d="M394.7749,436.2844a32.1557,32.1557,0,0,1-4.5162.5421c-1.3307-.0421-2.6611-.0569-3.9924-.0744l-8.983-.1179-17.966-.2359-35.9319-.4717q-35.9316-.4716-71.8639-.8873c-2.7508-.0276-2.7391,4.1739,0,4.2649,35.5515,1.1816,71.1014,2.4851,106.6572,3.5284,3.2611.0957,3.2523-4.9479,0-5.0625-45.4949-1.6035-90.8607-2.8253-136.3113.6005a1.5231,1.5231,0,0,0,0,3.0442c34.8867,2.6527,69.6307,4.23,104.6238,4.3859,2.3733.0106,2.3553-3.5739,0-3.674-44.5915-1.8947-89.5083-2.4735-133.8855,3.0309-2.6779.3321-2.8647,4.3844,0,4.3276,24.7569-.4912,49.6324-1.1923,74.3878-.5818v-6q-107.788,2.4468-215.5652,4.2358l.7941,5.8679,6.5751-2.1143c3.6629-1.1778,2.0893-6.9853-1.595-5.7856l-6.5684,2.1387c-3.104,1.0107-2.7011,5.9428.7942,5.8679q107.79-2.31,215.5652-4.21c3.8769-.0639,3.8391-6.241,0-6-24.725,1.5523-49.6194,1.8013-74.3878,2.2542v4.3276c44.4752-5.4468,89.1947-4,133.8855-3.6845v-3.674a767.2922,767.2922,0,0,1-104.6238-3.7561v3.0442c45.3795-2.0405,90.9437-.1812,136.3113,1.4178V437.77c-35.548-1.0431-71.1054-1.8261-106.6572-2.7308v4.2649c29.9432.0668,59.8866.003,89.83-.0234l43.9168-.0388c2.5014-.0022,10.1654,1.4719,11.702-1.6779.9261-1.8982-.7219-3.2336-2.42-2.9371a.8475.8475,0,0,0,.2243,1.6574Z"/><path class="cls-2" d="M100.45,419.6265c2.3946-.8006,4.793-1.586,7.1672-2.4457,3.14-1.137,2.4057-5.1935-.7561-5.5865-14.8488-1.8453-29.8582-2.8041-44.7593-4.172v5.6553l44.4027-5.5265a2.75,2.75,0,0,0,0-5.497,161.05,161.05,0,0,0-44.7317,1.9244c-1.9661.35-1.5281,3.64.4738,3.5009,7.97-.5524,16.0795-.65,23.9971-1.717,1.0994-.1481.7417-1.7781-.2492-1.8415-7.862-.5037-15.8684-.0165-23.7479-.0061v3.5646a209.2088,209.2088,0,0,1,44.2579.0717v-5.497l-44.4027,5.3682a2.83,2.83,0,0,0,0,5.6553c14.8968,1.4205,29.8251,3.2658,44.7593,4.2048l-1.4354-5.3c-2.12,1.4821-4.1928,3.0268-6.2761,4.56-1.4205,1.0451-.6625,3.7406,1.3,3.0843Z"/><path class="cls-2" d="M85.353,392.763a112.7813,112.7813,0,0,0-34.9481-.6651c-1.9858.2693-1.4482,3.42.4642,3.4294a308.3741,308.3741,0,0,0,32.9-1.6007c2.6112-.2674,2.717-4.04,0-4.1454-3.7624-.1466-13.5429-.5275-14.5005,4.6459-.423,2.2852,1.1976,3.74,2.7683,5.0964,3.3545,2.8963,7.1372,5.4073,10.67,8.0841l.5664-4.3335C72.05,405.4524,60.9109,408.0472,49.75,410.52c-2.278.5046-1.617,3.7688.5274,3.8969,6.5389.3908,13.0691,1.0424,19.597,1.586l-1.31-4.8367c-4.3706,2.2079-9.7061,3.2443-14.5674,3.8085-2.1234.2464-3.0164,3.5-.5482,4.0513,6.6258,1.4814,11.9426.054,17.7357-3.3775a2.6163,2.6163,0,0,0-1.31-4.8366c-6.5294-.1055-13.0718-.1039-19.597-.3628l.5274,3.8969c11.2531-2.1085,22.5347-4.0957,33.7289-6.4992,2.1821-.4686,2.0794-3.2335.5664-4.3335-2.5083-1.8237-6.5758-3.7635-8.489-6.172a1.2141,1.2141,0,0,1-.8756-1.5832q-.6939-1.7823,1.6081-1.4081c1.7818-.7448,4.5532-.459,6.4251-.4232v-4.1454a309.0794,309.0794,0,0,1-32.8995,2.2544l.4641,3.4293a107.6651,107.6651,0,0,1,33.2721.01c1.76.2742,2.5421-2.3961.7477-2.712Z"/><path class="cls-2" d="M570,431.9688c2.5336,0,2.5378-3.9375,0-3.9375-2.5336,0-2.5378,3.9375,0,3.9375Z"/><path class="cls-2" d="M546.3762,452.6376a268.6219,268.6219,0,0,0-70.3779-15.0207c-1.8051-.1384-1.7961,2.6748,0,2.8125a265.79,265.79,0,0,1,69.63,14.92c1.7064.613,2.4412-2.1036.7477-2.712Z"/><path class="cls-2" d="M502,440.9375l19.6682.879c1.6719.0747,1.6547-2.4881,0-2.59q-24.12-1.4909-48.249-2.8c-2.2067-.1214-2.7587,3.5231-.5293,3.9109a483.4917,483.4917,0,0,0,66.247,7.1239c4.2716.1475,4.11-6.1318,0-6.5387q-36.7842-3.6416-73.7444-5.9065v6.7389c24.7186.7694,49.4189,2.6145,74.1062,4.0685,5.0778.299,4.7934-7.1215,0-7.7335A505.7187,505.7187,0,0,0,467,434.5878c-3.8337.0649-5.0132,6.2485-.9417,6.9587a227.71,227.71,0,0,0,27.5733,3.1262c3.922.1992,4.9449-6.4106.944-6.9751-10.482-1.479-21.0536-2.44-31.5735-3.6192-3.2246-.3616-4.0083,5.197-.7726,5.7087,10.4558,1.6535,20.9033,3.5308,31.4021,4.8856v-7.1019a177.5053,177.5053,0,0,1-25.69-2.8564L467,441.673a654.9208,654.9208,0,0,1,72.4987,4.15V438.09c-24.6969-.9258-49.444-1.4646-74.1062-3.0739-4.3654-.2849-4.257,6.3309,0,6.7389q36.7893,3.5256,73.7444,5.7063v-6.5387a420.9311,420.9311,0,0,1-65.1884-4.425l-.5293,3.9109q24.1235.7777,48.249,1.4085v-2.59L502,439.0625a.9381.9381,0,0,0,0,1.875Z"/><path class="cls-2" d="M303.0036,426.8992c-32.4461-1.218-64.9461-.9453-97.4142-1.1166-3.2875-.0173-3.29,5.0749,0,5.1072,46.6123.4577,93.2474.5325,139.8494,1.6166,4.2649.0992,4.2538-6.4841,0-6.6193-36.7087-1.1666-73.3716-.8512-110.0772.3569-5.15.1695-5.1841,7.9751,0,8.0257q69.9417.6837,139.8811,1.6176c5.6755.0671,5.6736-8.7129,0-8.8137A1390.0769,1390.0769,0,0,0,230.31,432.1561c-5.2784.4579-5.4236,8.1031,0,8.3211,28.1359,1.131,56.2509,1.6036,84.405.8747,5.5865-.1446,5.5446-8.36,0-8.6478a974.3741,974.3741,0,0,0-116.0053.8106c-5.4109.3641-5.5286,8.6483,0,8.5128,28.48-.6979,56.9029-2.1133,85.2742-4.7427,5.2721-.4887,5.3737-7.92,0-8.2782-36.6307-2.4434-72.7149-.8691-109.1712,2.9093a3.5122,3.5122,0,0,0,0,7.0195,148.5072,148.5072,0,0,0,35.1979.0054c4.7409-.5635,5.0416-7.5671,0-7.6233-21.2882-.2374-42.5777-.2841-63.867-.3757-5.1935-.0224-5.1593,7.8374,0,8.0432,30.4466,1.2142,60.88,1.126,91.3052-.6229,5.8851-.3383,5.8469-8.6948,0-9.1185-36.4767-2.6434-73.3045-1.88-109.7291,1.1675a4.0614,4.0614,0,0,0,0,8.1175c40.5777,3.2167,81.1108,5.2314,121.8312,4.5331,6.2122-.1065,6.1922-9.4106,0-9.6344-40.75-1.4731-81.3545-1.0446-122.1127-.5346-5.8254.0729-5.7836,8.7592,0,9.0185l75.1548,3.37c6.5217.2924,6.4464-9.6853,0-10.0994-34.8734-2.24-69.5673,8.6484-104.2068.5257v9.2209q10.145-1.7928,20.2841-3.6179c5.2188-.9317,3.5558-8.4538-1.1874-8.774q-11.976-.8085-23.9477-1.6572l1.1,8.127c5.6925-1.4725,11.3-3.0166,16.8822-4.8655a3.5077,3.5077,0,0,0,0-6.7c-3.8761-1.4485-7.4542-1.7366-11.5164-2.0655-3.3678-.2727-3.35,4.9787,0,5.25a22.6111,22.6111,0,0,1,8.8393,3.1657l.83-6.35c-5.81.9744-11.5042,2.2292-17.2348,3.5866-4.8172,1.1411-3.2989,7.7169,1.1,8.1271q11.9783,1.117,23.9477,2.3159l-1.1875-8.774q-10.2258,1.5042-20.4513,3.0115c-4.8926.7283-4.1961,8.0318,0,9.2209,34.8028,9.8619,71.33-1.4128,106.7489.3528V435.1821l-75.1548-2.2894v9.0185c40.6489-.89,81.4741.0989,122.1127,1.15v-9.6344c-40.5706,1.1123-81.3865.6066-121.8312-3.0162v8.1175c36.6-2.6853,73.1175-2.3677,109.7291-.1665v-9.1185a861.0178,861.0178,0,0,1-91.3052,1.6982v8.0432c21.2892.0188,42.5782.0827,63.867-.0442l-1.0133-7.4872a144.6078,144.6078,0,0,1-34.1846.4623v7.0195c36.0057-4.3516,73.0457-4.3082,109.1712-1.6506v-8.2782c-28.3577,2.4334-56.8118,4.1028-85.2742,4.5081v8.5128a1120.3338,1120.3338,0,0,1,116.0053-.6756v-8.6478c-28.1161.8723-56.3065.87-84.405-.548v8.3211c48.1888-3.6834,96.6072-5.1512,144.9324-4.59v-8.8137q-69.9405-.3965-139.8811-.83V434.27c36.6683-1.2822,73.3882-1.6736,110.0772-1.7633v-6.6193c-46.6087.5107-93.2381.0114-139.8494-.1045V430.89c32.4674-.0668,64.9654.3106,97.4142-.8031a1.5947,1.5947,0,0,0,0-3.1875Z"/><path class="cls-2" d="M549,403.125l11,1c1.4415.131,1.4326-2.12,0-2.25l-11-1c-1.4415-.131-1.4326,2.12,0,2.25Z"/><path class="cls-2" d="M626,412.0313l1.8-.18a.8788.8788,0,0,0,.8213-.6253.9706.9706,0,0,0,0-.4528.8729.8729,0,0,0-.8213-.6253l-1.8-.18c-1.3259-.1323-1.3284,2.1949,0,2.0625Z"/><path class="cls-2" d="M617,394.2813h1a.2814.2814,0,0,0,0-.5625h-1a.2814.2814,0,0,0,0,.5625Z"/><path class="cls-2" d="M613,391.2813a.2814.2814,0,0,0,0-.5625.2814.2814,0,0,0,0,.5625Z"/><path class="cls-2" d="M604,387.8438l28,.3417c9.2358.1128,18.7962.8974,28,.127a1.3134,1.3134,0,0,0,0-2.625c-9.2049-.7705-18.7657.0142-28,.127l-28,.3418a.8443.8443,0,0,0,0,1.6875Z"/><path class="cls-2" d="M651,388.3762l25,1c.4827.0193.4818-.7307,0-.75l-25-1c-.4827-.0193-.4818.7307,0,.75Z"/><path class="cls-2" d="M693,412.5c-12.6967-.3239-24.7758-.5-37.4338.9354-1.8287.2074-1.934,2.9921,0,2.9373l5.4333-.154a1.22,1.22,0,0,0,0-2.4375l-5.4333-.3458v2.9373c6.2531-.1328,12.453-1.0873,18.6967-1.2839,6.2235-.196,12.5163.2861,18.7371.4112,1.9322.0389,1.93-2.9508,0-3Z"/><path class="cls-2" d="M666,414.4375l-41-.375a.9381.9381,0,0,0,0,1.875l41-.375a.5628.5628,0,0,0,0-1.125Z"/><path class="cls-2" d="M79.04,414.9891c-8.4647-2.047-17.4117-2.127-26.0882-2.2674-8.6993-.1408-18.0451.1581-26.2751,3.106a1.225,1.225,0,0,0,.324,2.394c8.5527.7707,17.3943-.4992,25.9511-1.2411,8.6655-.7513,17.4162-.556,26.0383-1.6232.1935-.0239.2736-.3142.05-.3683Z"/><path class="cls-2" d="M5,421.1a.1.1,0,0,0,0-.2.1.1,0,0,0,0,.2Z"/><path class="cls-2" d="M652,418.1875a.1876.1876,0,0,0,0-.375.1876.1876,0,0,0,0,.375Z"/><path class="cls-2" d="M656.48,406.8905a9.8843,9.8843,0,0,0,3.3521,1.1373c2.6207.53,3.7076-3.2384,1.1116-4.0318-6.5574-2.0042-13.7933-2.4041-20.6093-2.45-3.1553-.0212-3.1578,4.8722,0,4.902l10.2166.0964v-5.1139c-5.7185-.0375-11.4343-.0018-17.1527.0467-2.4109.02-3.6963,3.6562-1.3,4.8l4.5782,2.185.61-4.6648a144.0193,144.0193,0,0,1-27.2823,1.9888c-2.7891-.0676-2.7554,4.1579,0,4.3125a135.1233,135.1233,0,0,0,28.6393-1.3792c2.1435-.3367,2.4934-3.7442.61-4.6648l-4.5544-2.2258-1.3,4.8c5.7187.0047,11.4345-.0033,17.1527-.0844,3.2877-.0467,3.2978-5.1513,0-5.1139l-10.2166.1155v4.902c6.8185-.0955,13.3082.8973,20.0535,1.6544l-.5558-4.1064A9.8687,9.8687,0,0,0,656.48,405.11a1.037,1.037,0,0,0,0,1.781Z"/><path class="cls-3" d="M399.4965,244.85c-12.5188,7.7838-19.9491,21.7436-27.1406,34.1064a192.08,192.08,0,0,1-31.8238,41.5583c-1.87,1.8222-.5791,5.7883,2.2824,5.51,1.08-.105,2.1271-.2425,3.1994-.4054,3.6026-.5471,2.186-5.43-.7861-5.8084a22.7034,22.7034,0,0,0-2.4133-.2418l2.2824,5.51a197.6053,197.6053,0,0,0,30.7148-39.5842c7.8721-13.3521,15.1075-26.0691,27.15-36.1545,2.5014-2.0948-.7362-6.1875-3.465-4.4908Z"/><path class="cls-3" d="M396.1279,244.7662c1.3816,14.6384,9.89,28.1854,19.3588,39.0661,10.6217,12.2058,24.121,21.7115,38.1216,29.6528,28.1879,15.9885,60.949,29.9275,93.6471,32.0035,14.2856.907,29.9488-1.6836,40.578-12.0326,8.62-8.3926,13.9446-21.5487,9.9651-33.41-4.5559-13.5793-19.7243-21.8166-31.25-28.7377A257.8822,257.8822,0,0,0,417.09,235.1831c-4.3224.2815-4.3688,7.0254,0,6.7734,56.7863-3.2758,115.5119,12.97,161.5089,46.8145,5.1012,3.7534,10.19,8.3522,11.9523,14.659,1.6651,5.9587.1382,12.3728-2.8567,17.6457-7.0576,12.4257-20.9034,16.9617-34.5182,17.075-14.8375.1235-29.8226-3.6987-43.8863-8.127A276.2254,276.2254,0,0,1,466.5548,312.21c-14.7594-7.5508-29.1516-16.2616-41.039-27.9426-11.78-11.5752-18.7232-24.85-24.3467-40.1832-.9206-2.51-5.3328-2.4073-5.0412.6822Z"/><path class="cls-3" d="M427.48,235.95c-9.0268,1.4595-17.9205,4.76-26.2707,8.4157-7.9558,3.483-17.5959,7.5608-23.8353,13.7412-2.4964,2.4728.6555,5.8058,3.5124,4.5522,4.1786-1.8336,7.9317-4.7783,11.93-7.0032q5.2914-2.9445,10.8149-5.4431c8.2356-3.7165,16.7468-6.1609,25.3274-8.899,3.4746-1.1087,2.0016-5.9265-1.4787-5.3638Z"/><path class="cls-3" d="M425.0737,242.6712c-1.6221,1.5442-2.8975,5.3035-4.0573,7.3693-1.6788,2.99-3.2849,6.0244-4.7779,9.1117a122.07,122.07,0,0,0-7.1423,17.1942l6.3186.8551-.1748-1.6862c-.3177-3.0644-4.9641-4.2576-5.77-.7809l-.3737,1.612c-.7791,3.3609,4.3579,5.972,5.8794,2.4787,2.743-6.2979,5.1276-12.712,8.1134-18.9111,1.6277-3.3793,3.3806-6.6814,5.1566-9.9837,1.1939-2.22,2.67-4.5347,2.7322-7.1411.1939-8.11-12.1171-6.9492-9.2907-.5544.5833,1.32,2.4791,1.3,3.3866.4364Z"/><path class="cls-3" d="M397.4225,248.5564c-22.2064,10.7959-43.7595,22.0391-67,30.596q-16.89,6.2184-34.221,11.1108c-11.8156,3.3139-23.9928,5.54-35.6674,9.3156-3.3734,1.091-3.0186,6.798.88,6.499,12.2457-.9392,24.3272-4.3436,36.0958-7.6842,12.1167-3.4394,24.1066-7.3743,35.8793-11.8543,22.9644-8.7388,46.6578-18.9709,67.0779-32.7751a3.018,3.018,0,0,0-3.044-5.2078Z"/><path class="cls-3" d="M341.14,315.8529c-3.7326-10.7238-10.4558-25.8687-21.4316-30.9541-2.3416-1.0849-5.1187,1.8132-2.9444,3.816,4.61,4.2467,8.7588,7.8,12.0814,13.2525,3.0721,5.041,5.2338,10.4971,7.9251,15.7277,1.2248,2.38,5.2661.7339,4.3695-1.8421Z"/><path class="cls-3" d="M326.5982,319.8188c-5.946-5.7777-12.5911-10.8526-18.5886-16.6-3.003-2.8781-5.93-5.8409-8.7981-8.8536q-1.8432-1.9365-3.6391-3.9176c-.59-.6511-4.4189-3.9885-4.4132-4.6464l-1.8385,2.4148.3213-.0694-2.4042-.6355.256.2666-.3805-2.95-.1392.1888c-1.6926,2.2951,1.8554,4.6692,3.7853,2.9207l.1765-.16a2.456,2.456,0,0,0,.3806-2.95,2.8437,2.8437,0,0,0-2.6615-1.5313,2.542,2.542,0,0,0-2.4148,1.8386c-.62,2.9342,1.8885,5.1267,3.627,7.2431,3.3924,4.13,7.0258,8.0958,10.7915,11.8862,6.9506,6.9963,14.4573,14.3148,22.9478,19.4318,2.3932,1.4423,5.0135-1.9128,2.9917-3.8774Z"/><path class="cls-3" d="M291.6776,329.1162c-5.6327-6.3995-12.3472-11.7907-17.93-18.2944q-4.203-4.8966-7.9249-10.174c-1.7429-2.4741-3.1531-6.1353-6.454-6.6122a2.9622,2.9622,0,0,0-3.52,1.9985,3.0936,3.0936,0,0,0,.4761,3.1584,2.7664,2.7664,0,0,0,3.6308.9521l.3714-.1636c2.3216-1.0225,1.1806-5.0466-1.3052-4.8188l-.4056.0372,2.559,1.9482-.1876-.5858-.709,2.6825.3524-.4263-2.7839.7358c1.0748.3673,3.0347,4.5393,3.7463,5.5392q1.487,2.089,3.0455,4.125,3.3491,4.39,7.0055,8.532c4.94,5.57,10.47,11.577,16.9225,15.3969,2.5947,1.536,4.9892-1.8958,3.11-4.0307Z"/><path class="cls-3" d="M255.7286,336.8989c-2.2816-3.1614-5.8362-4.7926-9.0072-6.98-3.4844-2.4035-6.8471-4.9789-10.0972-7.6907-6.5576-5.4716-11.9714-11.842-17.97-17.8638-2.3735-2.3825-6.717.7437-4.7654,3.6769l1.7139,2.5761c2.0906,3.1423,7.0736.3177,5.1066-2.985l-1.5806-2.6539-5.24,3.0628c4.9687,7.3629,11.9222,13.7442,18.7194,19.3943,3.2506,2.702,6.6445,5.2325,10.1444,7.6021,3.4109,2.3092,6.7764,4.956,10.9459,5.3995a2.3629,2.3629,0,0,0,2.03-3.5384Z"/><path class="cls-3" d="M334.8445,320.7075l.3992.0375-1.496-.62c.9631,1.0614,2.2018.9725,3.492.8751a2.3711,2.3711,0,0,0,0-4.7422c-1.2938-.0977-2.5247-.1909-3.492.8751l1.496-.62-.3992.0376a2.0782,2.0782,0,0,0,0,4.1563Z"/><path class="cls-3" d="M333.1665,315.6558c-28.8346,14.2016-59.9836,22.4765-91.1023,29.981-15.5192,3.7425-31.0973,7.271-46.5094,11.4414-7.4034,2.0034-14.7762,4.1225-22.091,6.43-7.438,2.3459-15.6933,4.3777-22.4554,8.3316-3.7025,2.1649-1.1555,7.498,2.82,6.69,7.9611-1.6182,15.7254-5.245,23.4969-7.6627,7.325-2.2789,14.7055-4.3752,22.1148-6.3615,15.7046-4.21,31.4969-8.07,47.2522-12.082,30.7606-7.8339,61.4053-16.6325,89.8335-31.02,3.8323-1.94.4658-7.6315-3.36-5.7475Z"/><path class="cls-3" d="M266.1522,293.4975c-17.3484.4-34.8065,4.9394-51.3109,10.0049-16.8583,5.1741-33.21,11.7117-49.57,18.2552-13.4812,5.3921-28.1786,10.1446-39.5633,19.479-6.8789,5.64-20.6573,23.2048-7.6857,29.4379,16.1359,7.7536,36.8207,9.0238,54.0655,5.0655,4.11-.9433,2.2782-6.8013-1.7071-6.1924a92.8592,92.8592,0,0,1-29.4076.1577,81.4985,81.4985,0,0,1-13.4782-3.525c-1.6968-.5971-4.1855-1.1258-5.5627-2.1948-1.7286-1.3418-1.2413-2.2774-.4443-4.393,5.3621-14.234,22.747-20.7959,35.537-26.4242,17.8313-7.8467,35.8113-15.38,54.3093-21.5322,18.2182-6.0587,36.6464-9.7223,55.5-13.0974,2.8695-.5137,2.1723-5.1071-.6822-5.0412Z"/><path class="cls-3" d="M102.9742,357.32a271.149,271.149,0,0,0-5.1391,35.0813q-.6865,8.6207-.8265,17.2736c-.0813,5.05-1.0808,11.79,1.3794,16.4409,4.0147,7.59,16.6484,10.0043,24.2705,11.0682,10.5591,1.4739,21.1956.5993,31.717-.765,23.5855-3.0584,46.8327-5.4823,70.6441-5.8679,24.5391-.3974,49.1-.2264,73.6417-.1981,49.6843.0572,99.3744.3466,148.993,3.1735,24.3729,1.3886,48.6645,3.562,72.9521,5.9973,12.3908,1.2425,24.7835,2.4783,37.1988,3.4545q8.8168.6933,17.648,1.1877c5.5187.3,11.8625,1.4144,17.32.2088,10.3617-2.2889,12.9247-16.56,15.1706-25.2352a156.6449,156.6449,0,0,0,4.78-36.2c.4809-25.1724-4.1146-50.5913-11.754-74.5169-1.722-5.3934-10.0549-3.1711-8.5278,2.3511,5.6481,20.424,10.261,41.1193,11.1027,62.3654a159.2994,159.2994,0,0,1-1.5337,30.6545,136.5408,136.5408,0,0,1-3.1059,14.69c-1.2931,4.7867-2.5015,10.6346-5.1683,14.8758-2.6367,4.1931-10.0648,2.4061-14.3585,2.2047-5.8894-.2761-11.7742-.6477-17.6542-1.0789-11.111-.8148-22.2036-1.8611-33.29-2.9529-22.9441-2.2594-45.873-4.5311-68.8838-6.0143-45.9442-2.9614-91.9979-3.7158-138.0271-3.784-45.257-.067-91.0018-.9344-136.1049,3.3-22.2995,2.0934-46.5376,9.3384-68.7126,3.2272a41.6281,41.6281,0,0,1-8.5224-3.2228c-3.68-1.9594-3.6528-4.7686-3.7482-8.639q-.2249-9.1215.16-18.2447a288.3081,288.3081,0,0,1,4.458-39.1579c.715-3.9419-5.2253-5.6794-6.08-1.676Z"/><path class="cls-3" d="M101.39,400.008c11.7024,8.755,26.727,9.72,40.83,9.987a484.7339,484.7339,0,0,0,52.49-2.2087c34.6681-3.1106,69.1018-8.5464,103.8621-10.6672,69.1685-4.22,137.8711,6.735,206.4106,14.33,38.9068,4.3115,77.9958,7.5424,117.1733,6.5141,4.7014-.1234,4.7206-7.44,0-7.32-68.2637,1.7279-135.7471-9.6619-203.454-16.4354-33.7939-3.3808-67.7725-5.6744-101.75-4.6389-34.4551,1.05-68.6113,6.0175-102.8386,9.7362-19.3577,2.1032-38.7843,3.8154-58.2634,4.13-16.8781.2724-36.9351,1.62-51.2184-8.972-3.3272-2.4673-6.5106,3.0991-3.2413,5.5451Z"/><path class="cls-3" d="M419.8219,292.8891c-11.28,12.0462-22.1973,24.1583-34.7567,34.93a288.8667,288.8667,0,0,1-84.1522,50.0728q-11.15,4.2473-22.6225,7.5948-6.11,1.7891-12.2975,3.3007c-2.8981.7077-8.9855,3.2925-11.8009,2.1965l2.3274,1.79-.1556,1.7854-2.198,1.69.6273-.2119c3.6119-1.22,3.3148-7.4835-.9574-7.0745-4.929.472-6.7738,6.7514-2.207,9.3813,2.2664,1.3051,4.74.6994,7.16.2112,3.9-.7869,7.7773-1.7072,11.6336-2.6839a282.4265,282.4265,0,0,0,42.3257-14.474,294.5141,294.5141,0,0,0,76.5738-48.1995c12.6881-11.0271,25.1581-23.1561,34.93-36.8915,1.8648-2.6212-2.263-5.7313-4.4295-3.4177Z"/><path class="cls-3" d="M363.9841,344.9576c-1.5239,4.6482,1.2,9.9044,4.6229,13.0628,1.538,1.4191,7.1424,3.4921,7.648,5.2892.65,2.3116-6.0382,5.5694-7.6675,6.6638a201.9943,201.9943,0,0,1-18.2322,10.93c-4.075,2.1533-6.1738,3.6447-9.1391-.8254-2.2456-3.3853-3.3455-6.97-4.5171-10.8135l-4.1068,3.1571,1.716,1.1852c2.4753,1.71,5.3914-2.1241,3.2047-4.1534l-1.5329-1.4226c-1.6119-1.4958-5.0329-.5845-4.7724,1.9768.6222,6.1174,4.5375,17.965,11.4343,19.8285,3.4858.9419,7.1828-1.6369,10.07-3.1458q6.6753-3.4881,13.0662-7.4913c4.0031-2.5144,7.8958-5.2081,11.69-8.027,2.4521-1.8218,5.8712-3.7172,5.8055-7.18-.0628-3.3065-3.41-5.579-5.884-7.1943-2.2759-1.4861-4.6677-2.5853-6.3473-4.8309-1.6112-2.1541-1.9614-4.5894-2.9759-7.0086-.7848-1.8714-3.384-2.1325-4.0831,0Z"/><path class="cls-3" d="M346.0792,372.8672a4.3368,4.3368,0,0,1-.5782-3.0888l-1.8309,1.8309c3.2715-.8024,7.1378-1.2066,10.2368-2.5109a4.2263,4.2263,0,0,0,2.8828-4.0834l-2.5458,2.5457a6.724,6.724,0,0,1,3.2093.353,2.5636,2.5636,0,0,0,2.8616-1.1645,4.8782,4.8782,0,0,1,2.0914-2.1339,2.4316,2.4316,0,0,0-2.4526-4.196,9.4851,9.4851,0,0,0-4.0148,3.772l2.8616-1.1645a10.1036,10.1036,0,0,0-4.5565-.5576,2.6261,2.6261,0,0,0-2.5457,2.5458c.0726-1.1354-3.7439.2191-4.2864.3452l-5.1355,1.1935a2.6261,2.6261,0,0,0-1.8309,1.8309c-.9761,3.3313.0744,6.1862,3.287,7.5353,1.853.7782,3.0227-1.6269,2.3468-3.0527Z"/><path class="cls-3" d="M532.85,286.6c-18.1354-.1226-33.3055,12.5-48.095,21.3427a3.23,3.23,0,0,0,0,5.5259,114.3247,114.3247,0,0,0,29.4934,11.63c9.3226,2.2028,19.7344,4.0112,27.984-2.1134,6.338-4.7052,9.3591-13.322,6.2555-20.7665-3.2347-7.7588-11.3563-11.29-18.705-14.1188-3.7139-1.43-5.25,4.4767-1.6345,5.9288,5.2632,2.1137,12.2581,4.8991,14.4323,10.68,3.1,8.2441-4.4024,15.4221-12.1428,16.1934-7.2219.72-15.3636-1.84-22.1881-4.0174a108.1753,108.1753,0,0,1-20.2648-8.9425v5.5259c14.4272-8.564,27.6819-19.4061,44.865-21.54,3.3019-.41,3.5318-5.3042,0-5.3281Z"/><path class="cls-3" d="M464.876,268.213c7.0728,11.43,13.7308,23.1344,19.8537,35.1006l1.17-4.46c-5.12,3.79-16.04-2.5216-20.8111-4.9315a85.1683,85.1683,0,0,1-18.83-12.7327c-2.3842-2.1612-5.1516-4.63-5.99-7.8595-1.2842-4.9478,2.1255-6.8467,6.333-7.8188a43.7812,43.7812,0,0,1,10.7273-1.2106c5.9967.1417,6.2088,3.29,7.9617,8.099,1.139,3.1248,6.4174,2.9483,6.1921-.8381-.2668-4.4856-1.914-9.5114-5.81-12.1307-4.7038-3.1622-11.4138-2.1773-16.7081-1.4581-4.78.6494-10.18,1.556-13.4685,5.446-3.0727,3.6347-3.371,8.7411-1.7607,13.0844,1.8408,4.9654,6.0348,8.6958,10.0152,11.9716a88.9179,88.9179,0,0,0,16.2718,10.7643c8.153,4.1267,21.3943,11.2667,29.8277,4.7345,1.1513-.8918,1.1348-2.792.51-3.95a376.1754,376.1754,0,0,0-20.9837-34.44c-1.8758-2.73-6.2862-.2573-4.5,2.63Z"/><path class="cls-3" d="M460.2029,288.689l.1639.3258-.7718-2.8534-.0007.1331.2067,1.5385a4.3587,4.3587,0,0,0,1.0359,1.9681,5.8641,5.8641,0,0,0,3.0062,2.0739l.1563.0486a5.7441,5.7441,0,0,0,7.0113-7.0113l-.0486-.1563a5.9294,5.9294,0,0,0-5.5805-4.2488l-.1331.0007,2.8534.7718-.3258-.1639-1.3223-.558a4.1932,4.1932,0,0,0-2.2072-.0988,5.2605,5.2605,0,0,0-3.1782,1.5223,6.5878,6.5878,0,0,0-1.4235,2.4425,5.7728,5.7728,0,0,0,.558,4.2652Z"/><path class="cls-3" d="M525.66,311.0949c5.7157,0,5.7252-8.8829,0-8.8829-5.7156,0-5.7251,8.8829,0,8.8829Z"/><path class="cls-3" d="M583.4191,294.3665a89.7792,89.7792,0,0,0-30.1672-17.04c-2.9874-.9936-4.0947,3.0592-1.9727,4.6792a149.54,149.54,0,0,0,35.7769,20.0933c2.9811,1.1844,5.0523-3.7605,2.1883-5.1905-9.7949-4.8906-19.6225-9.7163-29.4351-14.5712a2.5738,2.5738,0,0,0-3.1041,4.023,139.2813,139.2813,0,0,0,15.975,16.6535l1.7788-4.2945q-8.7211-.9468-17.4472-1.8483c-1.8534-.1945-3.3586,2.3826-2.2315,3.8886a37.5353,37.5353,0,0,0,23.4406,14.81c3.3281.6222,4.79-4.3841,1.4153-5.1336q-13.0106-2.8893-26.018-5.7919a2.7672,2.7672,0,0,0-2.1219,5.0329c3.5593,2.4885,7.1162,4.9793,10.698,7.4354l2.1461-5.0907-15.9967-3.2547c-2.4589-.5-4.84,2.6184-2.6477,4.5484a80.7816,80.7816,0,0,0,17.4734,11.8l1.3581-5.0139-29.1049-2.55c-2.6267-.23-3.7676,3.9311-1.3676,5.0494l13.9352,6.4938,2.0957-4.9709q-6.4692-1.184-12.9374-2.3732c-2.361-.4337-5.0311,2.7013-2.66,4.5694L541.48,331.83l2.6712-4.5889a48.885,48.885,0,0,0-14.3844-1.6474c-2.9443.1033-3.4811,3.5362-1.393,5.143a30.5226,30.5226,0,0,1,6.4317,6.7669l3.1009-4.0337-23.37-4.9248c-2.8565-.6019-4.9789,3.4929-2.0919,4.9618a48.54,48.54,0,0,0,10.585,3.9644l1.436-5.2086-7.0294-1.187c-3.3628-.5678-4.8,4.14-1.431,5.1908a75.1026,75.1026,0,0,0,26.848,3.3141,2.6856,2.6856,0,0,0,2.2942-3.998,19.7943,19.7943,0,0,0-15.4206-9.8164c-3.0221-.351-3.25,4.1474-.6818,5.038,7.4353,2.5786,14.7981,5.33,22.1755,8.069,2.0718.7693,4.3424-2.06,2.9883-3.8873a21.0858,21.0858,0,0,0-9.5492-7.3715c-2.7977-1.1268-4.8669,3.7145-2.07,4.91a30.0529,30.0529,0,0,0,17.9814,2.0192c2.18-.4069,2.46-3.1746,1.2134-4.596a26.6016,26.6016,0,0,0-15.3982-8.7851,2.8176,2.8176,0,0,0-1.4967,5.429,69.0737,69.0737,0,0,0,12.55,3.67c2.3106.4256,5.5042,1.3388,7.7466.19,5.4642-2.8.1242-9.2737-1.7668-12.5405l-3.2329,4.2053c4.36.86,8.6553,1.8938,12.929,3.1126a2.8787,2.8787,0,0,0,3.5-3.5,7.2736,7.2736,0,0,0-6.257-6.0817,2.84,2.84,0,0,0-1.5083,5.4711l9.3535,3.2634c1.9313.6738,4.2279-1.5,3.4738-3.4738a48.6694,48.6694,0,0,0-9.48-15.5335l-2.7262,4.6831,10.4154,3.8263c2.646.9721,4.6726-2.8268,2.712-4.6589l-7.3951-6.9108-2.6992,4.6369a82.5307,82.5307,0,0,0,12.6719,3.5945,2.7709,2.7709,0,0,0,2.1245-5.0392l-15.6564-11.1447-2.7578,4.718q7.97,3.4718,15.9356,6.954a2.7229,2.7229,0,0,0,2.7464-4.6985,82.5494,82.5494,0,0,0-21.58-10.4838c-2.9066-.9279-4.8439,3.5459-2.0932,4.9649a260.19,260.19,0,0,1,24.9448,14.6773l2.089-4.955c-3.9921-.9117-11.7657-4.458-15.0254-.3346-3.3556,4.2446.1632,12.17,2.6081,15.9452l3.056-3.9752L569.2594,315c-1.8062-.3189-4.1407,1.2131-3.326,3.3259,2.41,6.2492-1.791,12.3047-7.5271,14.8309-5.63,2.4792-11.9683,2.2687-17.9948,2.146-3.2711-.0666-3.8029,4.686-.7586,5.6053,22.5292,6.8035,51.1815-15.94,50.4923-39.2035-.0961-3.2432-3.9674-3.918-5.7232-1.55A247.7631,247.7631,0,0,0,565.31,330.2665c-1.5353,2.8492,1.4652,5.3726,4.1643,4.1642,11.1972-5.0131,17.1609-16.133,22.2288-26.6886l-5.7742-2.4343c-1.7407,7.8064-3.5069,15.6075-5.19,23.4266-.7524,3.4955,4.0754,5.8671,5.9617,2.5134l9.6179-17.1c2.0416-3.63-3.4016-6.8-5.574-3.2581l-8.6308,14.0719,5.8469,2.465q.8127-2.4144,1.6263-4.8287c.9778-2.8911-2.3707-4.6625-4.6875-3.6035a260.5447,260.5447,0,0,0-24.3743,12.7361c-3.0694,1.816-1.0606,6.79,2.4449,5.7994l13.6356-3.8514-3.0782-5.2879L570.8,330.7759c-2.5211,2.205.2034,5.9222,3.0758,5.2839a67.9018,67.9018,0,0,0,11.281-3.5532,3.1709,3.1709,0,0,0-.8383-6.1946,18.7477,18.7477,0,0,0-10.8312,2.0072l4.3063,4.3062a107.9388,107.9388,0,0,0,8.1009-22.5076c1.2049-5.1826,3.7957-13.3546,1.093-18.4484-2.891-5.4488-11.4261-7.53-16.6461-9.7524q-11.6524-4.9617-23.6288-9.0819c-3.0178-1.043-5.0731,3.0665-3.01,5.1709a86.7954,86.7954,0,0,0,28.0343,19.1946c2.82,1.2027,6.6115-2.3859,3.6641-4.7488a238.4492,238.4492,0,0,0-34.715-23.22c-2.5089-1.3729-5.5922,1.4371-4.0178,4.0178a38.2067,38.2067,0,0,0,12.5257,12.6731c3.2061,2.0121,5.9426-2.8954,2.929-5.011a208.1836,208.1836,0,0,0-27.4761-16.2642c-2.69-1.3289-6.1217,2.3238-3.4422,4.4612a371.7248,371.7248,0,0,0,45.6472,31.21l2.1988-5.2154c-15.3553-2.1468-29.5647-8.1744-43.6514-14.3792-3.3031-1.4549-6.101,2.9536-2.8916,4.9469a266.7738,266.7738,0,0,0,34.481,18.0757,2.8762,2.8762,0,0,0,2.9009-4.9629,325.3033,325.3033,0,0,0-40.6787-25.79c-3.3593-1.7962-5.75,2.7612-2.8991,4.96a366.3143,366.3143,0,0,0,32.9949,22.6842c2.5759,1.5709,5.1394-1.47,3.9151-3.9151a114.2622,114.2622,0,0,0-12.8347-19.9661c-2.221-2.797-6.0441,1.14-3.9056,3.9057A114.8352,114.8352,0,0,1,548.28,299.6115l3.9151-3.915a366.3253,366.3253,0,0,1-32.9843-22.7023l-2.8991,4.96a327.5488,327.5488,0,0,1,40.6769,25.793l2.9009-4.9629a266.7938,266.7938,0,0,1-34.49-18.06l-2.8916,4.9469c14.5295,6.3917,29.1827,12.728,45.0259,14.9353,2.9827.4156,5.238-3.4587,2.1987-5.2154a362.1346,362.1346,0,0,1-44.51-30.2992l-3.4422,4.4613a202.1393,202.1393,0,0,1,27.4144,16.37l2.929-5.011A31.7223,31.7223,0,0,1,541.74,270.2856l-4.0178,4.0179a229.88,229.88,0,0,1,33.4033,22.4244l3.6641-4.7489a82.5967,82.5967,0,0,1-26.7113-18.3483l-3.01,5.1709c5.9392,2.0628,11.8311,4.2531,17.6547,6.6241q4.8664,1.9814,9.665,4.1231c2.305,1.0272,5.5909,1.9386,7.56,3.6015,4.2142,3.5594.4415,13.3848-.74,17.8946a100.4847,100.4847,0,0,1-6.8487,18.4034,3.1753,3.1753,0,0,0,4.3063,4.3063,12.9007,12.9007,0,0,1,7.6541-1.1354l-.8384-6.1946a67.8939,67.8939,0,0,1-11.2851,3.5383l3.0758,5.2838,2.73-2.3815c2.4373-2.1261-.157-6.1088-3.0781-5.2878l-13.64,3.8337,2.445,5.7994A260.5479,260.5479,0,0,1,588.12,324.5053l-4.6874-3.6035q-.8178,2.4132-1.6418,4.8244c-1.1984,3.52,3.9906,5.4682,5.8469,2.465l8.68-14.043-5.574-3.2581-9.6768,17.0652,5.9617,2.5133c1.711-7.8169,3.3389-15.6519,4.9922-23.4812.695-3.2917-4.1759-5.8616-5.7742-2.4343-4.5314,9.7173-9.5082,20.0736-19.8455,24.6215l4.1643,4.1642a271.4068,271.4068,0,0,1,19.16-30.0839l-5.7232-1.55c.6908,19.4591-23.9471,39.2424-42.8326,33.7l-.7586,5.6054c8.3169.1042,17.6893.0633,24.566-5.3328,5.6326-4.42,8.8343-11.8728,6.17-18.7889l-3.3259,3.3259,12.3089,2.1775c2.1494.38,4.4469-1.8258,3.056-3.9752-1.0327-1.5959-4.6182-8.0459-2.5863-9.4343,1.2807-.8751,7.426,1.4489,8.889,1.7836a2.7241,2.7241,0,0,0,2.089-4.955,260.1964,260.1964,0,0,0-24.9394-14.6867l-2.0931,4.9649a77.6249,77.6249,0,0,1,20.2775,9.9436l2.7464-4.6985q-7.9636-3.4832-15.9242-6.9735a2.7342,2.7342,0,0,0-2.7578,4.718l15.6311,11.188,2.1244-5.0392A82.55,82.55,0,0,1,573.9807,301.6c-2.6368-.9873-4.6365,2.817-2.6992,4.6369l7.3765,6.9294,2.712-4.6589-10.4076-3.8542c-2.81-1.0406-4.4405,2.7746-2.7262,4.6831a41.085,41.085,0,0,1,7.9961,13.0725l3.4738-3.4738-9.3466-3.2884-1.5083,5.4711,2.2779,2.1234,3.5-3.5c-4.27-1.23-8.5622-2.275-12.92-3.146a2.9,2.9,0,0,0-3.2328,4.2052c.824,1.4322,1.6854,2.8494,2.4749,4.3012q1.7163,2.9054-.1382-.0727-1.3916-.1921-2.7678-.4721a69.4727,69.4727,0,0,1-11.6587-3.3947l-1.4967,5.429a21.8962,21.8962,0,0,1,13.0061,7.245L559.11,329.24A24.2847,24.2847,0,0,1,544.66,327.614l-1.4282,5.1805a14.2969,14.2969,0,0,1,6.4076,4.8622l2.9884-3.8873c-7.4266-2.59-14.85-5.1616-22.2187-7.912l-1.3637,4.9464a15.1312,15.1312,0,0,1,11.514,7.46l2.2942-3.998a70.76,70.76,0,0,1-25.417-3.191l-1.431,5.1908,7.0244,1.2048c3.3606.5765,4.87-4.3566,1.436-5.2086a42.4382,42.4382,0,0,1-9.2807-3.4439l-2.0918,4.9618,23.3531,4.9848c2.1409.457,4.57-1.9282,3.1009-4.0336a37.2011,37.2011,0,0,0-7.8291-8.33l-1.9515,4.7114a44.0577,44.0577,0,0,1,12.9247,1.4225c2.4472.6422,4.9431-2.8083,2.6712-4.5888l-7.008-5.4922-2.66,4.5694q6.4728,1.1715,12.945,2.3458c2.7967.508,5.0979-3.5767,2.0957-4.971L536.79,317.9224l-1.3677,5.0494,29.1049,2.512c2.64.2279,3.6942-3.8558,1.358-5.0139a72.5737,72.5737,0,0,1-16.3409-11.0025l-2.6477,4.5484,15.9627,3.3779a2.799,2.799,0,0,0,2.1461-5.0906c-3.5612-2.483-7.1461-4.93-10.73-7.3808l-2.1218,5.0329q13.0383,2.7845,26.0668,5.615l1.4153-5.1336a32.2229,32.2229,0,0,1-20.393-12.2856l-2.2314,3.8887q8.7228.864,17.4472,1.7111c2.1329.2036,3.3739-2.92,1.7789-4.2946a117.1922,117.1922,0,0,1-15.91-16.7183l-3.1041,4.0231c9.7168,5.0193,19.419,10.068,29.1541,15.0518l2.1883-5.19a141.533,141.533,0,0,1-34.7026-19.0376l-1.9727,4.6792a83.47,83.47,0,0,1,28.23,15.4006c2.2854,1.898,5.5944-1.3378,3.298-3.298Z"/><path class="cls-3" d="M549.2585,284.5351c-12.564-9.9954-27.1444-17.739-41.9853-23.7442-3.01-1.2179-4.3,3.6463-1.34,4.8591,14.2565,5.84,28.3673,12.062,42.5008,18.193,3.1118,1.35,5.8712-3.1663,2.7091-4.6348-20.2075-9.3847-40.78-18.0039-61.4821-26.2322-3.06-1.2163-4.3362,3.6845-1.3541,4.9118,20.1929,8.31,40.1726,17.0924,60.1271,25.9552l2.068-4.9054c-14.234-5.8932-28.5167-11.7089-42.6273-17.8927l-2.5434,4.3511c14.5568,6.3048,27.7862,14.2243,40.9824,22.9551,2.2643,1.4981,5.12-2.085,2.9444-3.816Z"/><path class="cls-3" d="M516.2986,267.2519c12.6135,4.3909,25.2518,8.7175,37.8282,13.2138,3.1742,1.1348,4.4159-3.7886,1.376-4.9913-15.8683-6.2783-31.8633-12.25-47.799-18.3552l-1.5255,5.5334c16.6214,4.1785,33.2064,8.5566,49.8814,12.5149,3.9771.9441,5.22-4.4688,1.6419-5.9555A400.02,400.02,0,0,0,508.22,252.4448c-3.3846-.9118-4.7888,4.2327-1.4442,5.2384q23.307,7.0079,46.5161,14.3517l1.5722-5.7029a404.0764,404.0764,0,0,1-42.891-12.601c-3.0291-1.0765-5.2037,3.9329-2.2137,5.2508q19.4046,8.5527,39.4814,15.4282l1.5486-5.6175c-6.4128-.9057-12.8353-1.7465-19.2534-2.614-3.1225-.422-5.0233,3.2814-2.1976,5.2128a123.9128,123.9128,0,0,0,48.8739,19.9577c2.9475.51,5.3312-3.679,2.2021-5.2234l-36.6206-18.074-2.0473,4.8561c9.5139,3.8941,18.95,7.99,28.4175,11.996,3.2874,1.3909,6.1534-3.4392,2.8335-4.8475-9.3363-3.96-18.75-7.7308-28.0966-11.6677l-1.458,5.2885c9.8185,2.1271,25.4233,5.8683,25.116,18.82-.143,6.0227-5.72,8.7963-9.5194,12.522-3.254,3.1907-5.5181,7.1452-5.0166,11.7962.3969,3.6794,5.73,3.8524,5.8618,0a117.7739,117.7739,0,0,0-2.9073-30.2643c-.6905-3.0338-4.6014-2.4184-5.5562,0-4.0662,10.2987-7.7755,20.7114-11.0512,31.2891l5.83.789a94.1966,94.1966,0,0,1,2.4589-24.4337c.7444-3.17-3.99-5.5483-5.5119-2.3237L532.8148,313.76c-1.3509,2.8619,2.3742,6.4706,4.7363,3.6544a65.15,65.15,0,0,0,10.9506-18.52l-5.9235-.8017c-.9686,8.6317-2.4215,17.1839-4.2355,25.6765a3.1113,3.1113,0,0,0,5.9951,1.6528A238.7758,238.7758,0,0,1,557.0586,295.24l-5.8743-1.591a98.2259,98.2259,0,0,0-.1014,21.731c.2826,2.6726,3.3211,4.3134,5.4523,2.2584a57.28,57.28,0,0,0,12.94-18.5894l-5.9045-2.4893a216.26,216.26,0,0,1-5.9131,22.0879c-1.0979,3.3741,3.1749,5.1539,5.4975,3.2A57.09,57.09,0,0,0,575.57,307.1305l-6.0122-2.5347-2.8845,16.5418,6.3506.8595.4377-6.57c.2754-4.1322-6.1212-4.0985-6.4218,0l-.482,6.57c-.2637,3.5955,5.6983,4.4579,6.3506.8594l2.9932-16.5118c.6418-3.5406-3.9878-5.89-6.0122-2.5346a54.9458,54.9458,0,0,1-11.3858,13.3865l5.4975,3.2q3.42-10.9242,5.8-22.1191c.7108-3.351-4.3636-6.034-5.9044-2.4893a54.1883,54.1883,0,0,1-11.8785,17.3336l5.4523,2.2584a94.2524,94.2524,0,0,1,.0182-21.731c.362-3.1257-4.5207-4.2683-5.8743-1.591a237.0966,237.0966,0,0,0-13.2719,31.7108l5.9951,1.6528c1.8587-9.0477,3.2418-18.1519,4.2716-27.3293.4081-3.6365-4.7937-3.7059-5.9235-.8017a56.3108,56.3108,0,0,1-9.3995,15.8585l4.7362,3.6545,10.3325-21.8884-5.5119-2.3238a98.4992,98.4992,0,0,0-2.5794,26.0371,2.9824,2.9824,0,0,0,5.83.7891c3.2136-10.586,6.8151-21.0465,10.8831-31.3354H551.421a111.41,111.41,0,0,1,2.6017,28.7325h5.8618c-.7695-7.3659,8.1845-10.6023,11.7632-15.8708a16.09,16.09,0,0,0,1.5732-14.5013c-4.232-12.0933-17.0353-15.6823-28.32-18.0545-3.5366-.7435-4.66,3.9627-1.458,5.2885,9.1508,3.7891,18.2314,7.7435,27.3916,11.51l1.4924-5.4134c-9.5116-3.9006-19.068-7.7095-28.5331-11.7217-3.0571-1.2959-5.8047,3.0088-2.6819,4.5883l36.4177,18.421,2.2022-5.2233a118.154,118.154,0,0,1-47.5145-19.3716l-2.1976,5.2129c6.4063.9141,12.8094,1.8551,19.2211,2.7311,3.6254.4953,5.21-4.3955,1.5486-5.6175q-19.4214-6.4827-38.13-14.7719l-2.2137,5.2508a398.1974,398.1974,0,0,0,42.8462,12.7635c3.7.8778,5.2368-4.6364,1.5722-5.7029q-23.3625-6.7987-46.6441-13.8872l-1.4442,5.2384a360.2045,360.2045,0,0,1,48.5464,17.173l2.38-5.6442c-16.6092-4.2422-33.3338-8.0706-49.9978-12.0928-3.6422-.8791-4.9454,4.26-1.5255,5.5334,15.9762,5.9492,31.9084,12.0386,47.9485,17.8131l1.376-4.9913c-12.6984-4.0968-25.3423-8.3661-38.0059-12.5693-2.7676-.9186-3.9189,3.4-1.1983,4.3468Z"/><path class="cls-3" d="M518.7457,261.7065a99.11,99.11,0,0,0-40.639-14.6536c-2.4872-.327-3.4817,3.7018-1.2823,4.7344a193.17,193.17,0,0,0,51.482,15.8839c3.4639.5588,5.0252-4.41,1.483-5.3793q-27.6825-7.5751-55.8969-12.8658l-1.541,5.59c20.3722,3.234,40.7306,6.562,61.1154,9.7157l.7981-5.8969a461.5015,461.5015,0,0,1-65.0877-9.7932l-.7533,5.5662,44.0033,2.2292c3.0177.1529,3.7337-4.7131.7205-5.3242a343.9811,343.9811,0,0,0-82.6-6.2261,2.5664,2.5664,0,0,0-.679,5.0168,135.4021,135.4021,0,0,0,49.0782,6.43,2.954,2.954,0,0,0,.7813-5.7729,108.3415,108.3415,0,0,0-48.0023-6.52c-3.2329.29-4.1518,4.822-.7891,5.83a139.7659,139.7659,0,0,0,55.1116,5.214c2.5738-.2745,4.2176-3.9038,1.4468-5.3418a91.7891,91.7891,0,0,0-48.5022-10.1315c-2.038.1312-3.8263,2.9746-1.8761,4.5294a60.7357,60.7357,0,0,0,28.2913,12.7545,2.718,2.718,0,0,0,1.4438-5.2371c-8.0274-2.95-24.2163-7.2421-30.43,1.16-5.5114,7.4526.5243,17.3165,9.4676,16.7407,2.599-.1673,4.2818-4.0907,1.462-5.3977a66.167,66.167,0,0,0-31.956-6.2724c-3.1.1844-3.7822,3.7533-1.4891,5.4979a32.256,32.256,0,0,1,11.2144,15.9387l4.2888-3.297L414.0249,267.65c-2.75-1.569-6.1348,2.4066-3.5079,4.5464,8.4038,6.8455,16.68,13.8436,25.0925,20.6771l2.9523-5.0717a25.194,25.194,0,0,1-13.1256-5.595l-3.6229,4.6953a194.2445,194.2445,0,0,0,45.3725,21.99c3.5462,1.1611,5.084-3.7424,2.3886-5.6657l-24.8179-17.708-3,5.1323a167.9967,167.9967,0,0,0,48.81,18.28c3.2422.6463,5.6029-3.8787,2.3652-5.61a169.8434,169.8434,0,0,0-26.5264-11.4045c-3.3751-1.1231-4.9276,3.6192-2.2945,5.4427a260.79,260.79,0,0,0,57.3352,30.305c3.4539,1.2872,5.8348-4.34,2.5194-5.9758a189.3967,189.3967,0,0,0-43.0227-15.1642c-3.4753-.7674-5.787,4.028-2.4893,5.9045a297.7827,297.7827,0,0,0,44.6616,21.0093c4.2062,1.5423,5.9143-5.067,1.836-6.66q-10.0061-3.9081-20.014-7.8115c-3.43-1.33-5.0987,3.3-3.2381,5.5625a33.8259,33.8259,0,0,0,16.1775,10.9462c3.8837,1.2337,5.5145-4.0542,2.6-6.1678a158.4,158.4,0,0,0-27.4577-15.96c-2.9051-1.3224-6.6756,2.4463-3.7361,4.8422a69.2133,69.2133,0,0,0,20.6826,11.8733c3.3325,1.1815,5.4237-3.9778,2.3876-5.6635A334.4555,334.4555,0,0,0,468.19,304.2589c-3.2218-1.2195-4.4135,3.3532-2.1464,5.0914a213.5289,213.5289,0,0,0,24.1786,16.1048l2.2879-5.4267a111.32,111.32,0,0,1-28.898-13.7517l-1.2953,4.7824a34.7886,34.7886,0,0,1,14.4278,5.3322l2.0611-4.8888-20.3414-5.0759a2.6136,2.6136,0,0,0-2.0047,4.7549,55.47,55.47,0,0,0,21.0448,7.6518c2.6637.362,4.4351-2.31,2.6162-4.4941l-6.7257-8.0778c-2.1459-2.5773-5.7056,1.0969-3.6571,3.6571l6.58,8.2233,2.6162-4.4941a53.2439,53.2439,0,0,1-19.8484-6.9588l-2.0046,4.7549,20.3025,5.2171a2.6873,2.6873,0,0,0,2.0611-4.8888,39.126,39.126,0,0,0-17.1279-5.8458c-2.8043-.3113-3.1034,3.4745-1.2953,4.7824a103.3238,103.3238,0,0,0,29.91,15.0457c3.2218,1.0009,5.2084-3.7723,2.2878-5.4267A237.8164,237.8164,0,0,1,468.8551,304.54l-2.1464,5.0913a261.261,261.261,0,0,1,42.5161,20.12l2.3876-5.6635a60.2484,60.2484,0,0,1-17.97-10.2575l-3.7362,4.8422A154.1637,154.1637,0,0,1,517.07,335.135l2.6-6.1678a28.8431,28.8431,0,0,1-13.2649-9.1448l-3.2381,5.5626q9.9643,4.0491,19.9475,8.0528l1.836-6.66A318.1477,318.1477,0,0,1,481.714,306.85l-2.4893,5.9045a184.4319,184.4319,0,0,1,41.44,14.58l2.5194-5.9758a247.6324,247.6324,0,0,1-56.0678-29.1421l-2.2945,5.4426a160.4267,160.4267,0,0,1,25.0111,10.9625l2.3653-5.61a160.6886,160.6886,0,0,1-47.4416-17.4924c-3.3954-1.9282-6.0379,2.9262-3,5.1323L466.4453,308.58l2.3886-5.6657A189.7322,189.7322,0,0,1,424.8311,281.74c-2.7975-1.841-6.2393,2.4935-3.6228,4.6954a30.6157,30.6157,0,0,0,15.74,7.2192c2.5972.37,5.5991-2.8973,2.9523-5.0717-8.382-6.8861-16.8981-13.6048-25.29-20.4795l-3.5079,4.5463,15.3605,8.8209c2.1287,1.2225,5.0882-.8171,4.2887-3.2969a39.1608,39.1608,0,0,0-13.8666-19.4816l-1.4891,5.4979a59.618,59.618,0,0,1,29.0321,5.3739l1.4619-5.3977c-3.4783.2142-6.65-2.1343-5.7047-5.853.9993-3.9318,5.2719-4.1562,8.6941-4.1849a46.6585,46.6585,0,0,1,16.5289,3.1678l1.4438-5.2371a56.59,56.59,0,0,1-25.9828-11.27l-1.8762,4.5294a83.6787,83.6787,0,0,1,45.6085,9.7754l1.4469-5.3418a139.4946,139.4946,0,0,1-53.5335-5.2051l-.789,5.83a105.5787,105.5787,0,0,1,46.44,6.2514l.7813-5.7729a136.2962,136.2962,0,0,1-47.72-5.4778l-.679,5.0169a309.4479,309.4479,0,0,1,81.1586,6.3454l.7206-5.3242L468.424,248.94c-3.18-.1789-3.8645,4.8511-.7533,5.5662a470.8423,470.8423,0,0,0,66.5943,10.3323c3.3328.2763,4.15-5.3611.7981-5.8968-20.3765-3.2568-40.7814-6.34-61.1706-9.5159-3.62-.5639-5.245,4.9048-1.541,5.59q28.22,5.2187,55.9549,12.6553l1.483-5.3793a197.0452,197.0452,0,0,1-50.4-14.8922l-1.2823,4.7345a93.3093,93.3093,0,0,1,38.4427,13.33c2.3983,1.4709,4.5518-2.258,2.1963-3.7574Z"/><path class="cls-3" d="M470.8192,299.8905a34.0686,34.0686,0,0,0,14.8272,1.4672c2.1477-.2759,3.4318-2.61,1.8068-4.3622l-5.2975-5.7135-3.1405,4.07a49.92,49.92,0,0,0,24.5038,8.4761,2.9439,2.9439,0,0,0,2.5272-4.404,47.1679,47.1679,0,0,0-13.16-12.7516l-2.2465,5.3285,9.3626,2.2886a3.1043,3.1043,0,0,0,2.9966-5.1477,60.2541,60.2541,0,0,0-12.9686-9.9864l-2.3581,5.5934q11.7563,2.7819,23.4573,5.7614c3.3883.8585,5.7191-4.08,2.4439-5.7971l-26.02-13.6384-2.362,5.6028q12.6262,3.269,25.2324,6.6134c3.4319.9047,5.18-3.68,2.3494-5.5726a180.7325,180.7325,0,0,0-20.5793-11.8644l-2.3148,5.4906c9.0122,3.7616,18.1708,7.1211,27.4994,10.0117,3.4867,1.08,5-3.6556,2.3425-5.5562a118.6528,118.6528,0,0,0-27.4667-14.5127l-1.596,5.789q10.5651,2.8811,21.12,5.796c2.6956.7456,5.3337-3.0521,2.9108-5a58.5388,58.5388,0,0,0-16.7146-9.5263l-1.5956,5.7876c10.91,2.9173,21.7713,6,32.6393,9.0692l.83-6.13c-3.2034-.3336-6.4169-.5677-9.6269-.83-2.4061-.1967-3.4818,2.6245-2.5635,4.4672a63.5522,63.5522,0,0,0,15.0078,19.8124l2.9655-5.0944a141.2544,141.2544,0,0,0-30.06-3.491c-2.1367-.0229-4.092,2.71-2.6545,4.6258a20.17,20.17,0,0,0,10.9755,7.7118l1.6218-5.8825-11.1788-2.236c-2.6306-.5262-5.54,3.0123-2.9419,5.0538q2.42,1.9015,4.8444,3.7984l1.3252-5.0195a49.316,49.316,0,0,0-13.1968,5.85l4.0215,1.0545c-4.6709-6.32-2.5451-14.9121-5.9759-21.8172-3.2716-6.5845-9.99-10.4221-16.256-13.7085-2.1528-1.1291-5.3239,1.3365-3.6418,3.6418q10.1894,13.9642,20.3786,27.9287l4.2815-3.3036a397.5115,397.5115,0,0,1-28.9668-32.485c-1.7119-2.1455-5.6831.175-4.6792,2.7238q6.9924,17.752,13.8656,35.55c1.3615,3.51,6.9917,2.1235,5.7607-1.5881a260.5268,260.5268,0,0,0-21.8569-48.3726c-1.7013-2.9433-6.0974-.9415-5.3674,2.2628a196.0425,196.0425,0,0,0,16.5728,45.7752c1.0806,2.1144,4.0226,1.7753,5.1843,0,8.0593-12.3158,1.84-26.2672-4.4072-37.8253-1.6326-3.02-6.87-.9573-5.6507,2.3823l11.1675,30.5973c.9383,2.5707,5.5505,3.3742,6.06,0a98.218,98.218,0,0,0-.709-33.7143l-5.9772,1.6478c3.4434,13.9382,6.745,27.9093,10.0659,41.8771.6061,2.5495,4.8551,3.4266,5.9988.7841a111.4688,111.4688,0,0,0,8.699-36.1687c.2679-3.5036-5.7192-4.3816-6.2069-.84a162.3729,162.3729,0,0,0-1.5753,23.6434l6.3-.8526a82.3536,82.3536,0,0,0-12.0745-22.5657c-.9615-1.2674-2.861-2.2729-4.3909-1.1513a17.253,17.253,0,0,1-5.7989,2.8647l3.1114.8224a34.0968,34.0968,0,0,1-7.1625-15.6407c-.3588-2.1232-3.425-2.7576-4.7906-1.2648-6.7181,7.3437-18.5848,8.2395-26.0851,1.5055a3.01,3.01,0,0,0-4.6653.6011q-1.2915,2.2635-2.5811,4.5279h5.1578l-1.6038-3.7177c-1.3075-3.0309-5.3417-1.0706-5.5889,1.5137a23.1411,23.1411,0,0,1-1.9741,7.4659h5.2041l-4.2968-6.6773c-1.0919-1.6967-4.2446-2.2108-5.1971,0a21.9383,21.9383,0,0,0-1.9645,10.5764l5.9019-.7987a21.5976,21.5976,0,0,0-4.1192-6.5455,3.0236,3.0236,0,0,0-4.7139.6074,88.0935,88.0935,0,0,0-7.2287,18.7113l5.8872,1.6231a87.7829,87.7829,0,0,0,2.1953-21.8362c-.0773-3.2457-3.9937-3.935-5.7373-1.554a49.4087,49.4087,0,0,0-9.1582,23.5382c-.2458,1.9626,2.172,3.548,3.9051,2.9748a30.8223,30.8223,0,0,0,20.2609-35.6112c-.7873-3.6029-5.8549-2.4966-6.1031.826a116.5635,116.5635,0,0,0,1.8007,30.5862c.6274,3.3,5.1852,2.7148,6.115,0a82.6492,82.6492,0,0,0,4.3713-23.5051h-6.44a166.8822,166.8822,0,0,0,1.7487,31.4188c.5516,3.713,6.4843,2.7487,6.4536-.8734l-.0429-5.0659c-.0362-4.2683-6.3577-4.215-6.5926,0a25.2341,25.2341,0,0,0,16.3984,24.9167c2.9809,1.1642,5.0876-2.6185,3.8514-5.01q-.902-1.7649-1.8366-3.5126c-1.529-2.8914-6.64-1.6757-6.3551,1.7212a15.9221,15.9221,0,0,0,1.71,6.185,3.1958,3.1958,0,0,0,2.85,1.6347,15.7839,15.7839,0,0,0,8.2325-3.0369c3.1635-2.3513.2408-7.7027-3.1624-5.41a9.4893,9.4893,0,0,1-5.07,1.846l2.85,1.6347-.5888-2.8533-6.3551,1.7213q.9018,1.7649,1.8365,3.5128l3.8514-5.01a18.34,18.34,0,0,1-11.619-18.3395h-6.5926l.0645,5.0659,6.4536-.8734a157.7471,157.7471,0,0,1-1.6447-29.672c.1514-4.1454-6.2859-4.1381-6.44,0a76.4426,76.4426,0,0,1-4.0461,21.8193h6.115a109.9482,109.9482,0,0,1-1.7016-28.9l-6.1031.8259a24.4373,24.4373,0,0,1-15.909,28.01l3.9051,2.9748a43.37,43.37,0,0,1,8.3051-20.43l-5.7372-1.5539a84.9482,84.9482,0,0,1-1.9249,20.2131c-.8268,3.8193,4.9422,5.4588,5.8872,1.6231a76.2612,76.2612,0,0,1,6.5247-17.3046l-4.7139.6074a10.7163,10.7163,0,0,1,2.5692,3.8983c1.1831,2.8231,6.1479,2.9194,5.9019-.7987a15.521,15.521,0,0,1,1.1524-7.5386h-5.1971l4.29,6.6814c1.1083,1.7264,4.2169,2.186,5.2041,0a31.679,31.679,0,0,0,2.7684-10.5078l-5.5889,1.5138,1.6254,3.705c.92,2.0975,4.1483,1.7968,5.1578,0q1.2765-2.2721,2.5531-4.5442l-4.6654.6012c9.8259,8.7127,25.4425,8.1945,34.3395-1.6528l-4.7906-1.2648a40.1639,40.1639,0,0,0,8.1677,18.6394,3.1384,3.1384,0,0,0,3.1114.8224,21.9638,21.9638,0,0,0,7.3382-3.49l-4.391-1.1514a78.9588,78.9588,0,0,1,11.4315,21.0313c1.1677,3.264,6.3489,2.9527,6.3-.8526a156.6165,156.6165,0,0,1,1.3678-22.8034h-6.32a107.4842,107.4842,0,0,1-8.378,33.64h6.33c-3.5074-13.9185-7.0334-27.8311-10.4184-41.78-.95-3.914-6.7141-2.2286-5.9772,1.6478a90.9163,90.9163,0,0,1,.6264,30.3959h6.06l-11.265-30.57-5.6506,2.3822c5.2151,9.5774,11.2776,21.2855,4.5619,31.6741h5.1843a180.5841,180.5841,0,0,1-16.0937-44.3061l-5.3674,2.2628a280.96,280.96,0,0,1,21.1676,46.9964l5.7607-1.5881q-7.1457-17.7127-14.2271-35.45l-4.6792,2.7239A395.1345,395.1345,0,0,0,493.3187,293.49c2.1154,2.11,6.167-.74,4.2816-3.3035l-20.49-27.8638-3.6418,3.6418c6.7528,3.51,13.5983,7.4114,15.2371,15.4746,1.3,6.3991.5779,12.8642,4.6057,18.4214a3.0009,3.0009,0,0,0,4.0215,1.0545A43.623,43.623,0,0,1,509.16,295.78c2.0016-.54,3.1443-3.57,1.3252-5.0194q-2.4052-1.917-4.8153-3.8275l-2.9419,5.0538,11.1646,2.2871c3.8189.7824,5.4225-4.7663,1.6218-5.8825a13.35,13.35,0,0,1-7.2883-4.9325l-2.6545,4.6258a146.3811,146.3811,0,0,1,28.4394,3.2209c2.7262.5754,5.4666-2.9792,2.9655-5.0945a51.9193,51.9193,0,0,1-14.1913-18.4986l-2.5635,4.4672c3.2072.3922,6.4118.813,9.6269,1.1342,3.5512.3547,4.16-5.2453.83-6.13-10.9145-2.9-21.83-5.7856-32.703-8.8381-3.7877-1.0633-5.1387,4.4383-1.5956,5.7876a52.028,52.028,0,0,1,14.0793,7.97l2.9107-5q-10.5634-2.8866-21.115-5.8154c-3.7919-1.0509-5.1417,4.44-1.596,5.789A117.2721,117.2721,0,0,1,516.6523,281.05l2.3424-5.5562a265.381,265.381,0,0,1-26.8009-9.64c-3.4589-1.4688-6.5658,3.4184-3.0324,5.1878a192.1531,192.1531,0,0,1,20.534,11.9419l2.3494-5.5727q-12.6168-3.3048-25.2238-6.6452c-3.29-.8771-5.4922,3.9331-2.362,5.6027l25.913,13.822,2.444-5.797q-11.7816-2.6882-23.5165-5.5465c-3.34-.8178-5.39,3.7889-2.3581,5.5934a64.8226,64.8226,0,0,1,11.7021,9.0571L501.64,288.35l-9.45-1.9712a2.9294,2.9294,0,0,0-2.2464,5.3285,40.8248,40.8248,0,0,1,11.0484,10.6714l2.5271-4.4039a42.7386,42.7386,0,0,1-21.8878-7.0981c-2.5222-1.6621-5.11,1.9858-3.14,4.07l5.3488,5.6623,1.1275-4.271a32.3122,32.3122,0,0,1-12.96-.757c-2.7931-.7344-3.9227,3.4429-1.188,4.3092Z"/><path class="cls-3" d="M420.0842,268.262a27.115,27.115,0,0,0,18.7949,19.8459c2.2921.661,4.5584-2.0639,3.1926-4.1529A49.0163,49.0163,0,0,0,431.68,272.2464a2.5546,2.5546,0,0,0-4.2274,2.4608,18.9169,18.9169,0,0,0,5.6847,11.3806,2.7286,2.7286,0,0,0,4.5229-2.6329,18.4681,18.4681,0,0,0-4.5406-8.7763c-2.1793-2.4474-5.7526.6683-4.3614,3.3652,8.0556,15.6163,17.8806,31.1141,36.1647,35.3248l1.4667-5.32a132.7586,132.7586,0,0,1-25.3025-7.9086l-1.324,4.8026c9.259,2.379,18.3477,5.4077,27.5879,7.8626,2.9135.774,4.0938-3.5939,1.24-4.4975-9.1163-2.8862-18.4123-5.2073-27.5038-8.1677-2.6455-.8613-4.4839,3.32-1.9189,4.5515a112.2508,112.2508,0,0,0,25.7547,8.6773c3.4528.7186,4.9434-4.5024,1.4667-5.32-16.1425-3.7974-25.4393-19.2336-32.8357-32.8078l-4.3615,3.3652a13.1547,13.1547,0,0,1,3.2489,6.2879l4.5229-2.6329a13.0053,13.0053,0,0,1-4.5434-8.226l-4.3177,1.7885a40.9864,40.9864,0,0,1,9.0861,10.9854l3.1926-4.1529A22.7552,22.7552,0,0,1,425.787,266.69c-.9371-3.6885-6.6176-2.1273-5.7028,1.5722Z"/><path class="cls-3" d="M464.3392,309.6718a116.1392,116.1392,0,0,0,13.5815,9.644c1.677.9848,3.5164,1.8191,5.36.7247a3.4235,3.4235,0,0,0,1.52-4.2206c-1.002-2.9307-5.5875-1.7348-4.6858,1.2918l.186.6244.2463-1.8823q.9888-.7992-.6777-1.054-1.0387-.5865-2.0662-1.1925-1.7973-1.06-3.5578-2.18c-2.5145-1.5972-4.961-3.2906-7.3642-5.05-1.9037-1.3938-4.4026,1.805-2.542,3.2945Z"/><path class="cls-3" d="M471.9429,307.6216a31.1358,31.1358,0,0,0,7.4687,4.0019c2.6583,1.02,3.9344-3.3934,1.188-4.3091a25.419,25.419,0,0,1-6.52-3.349,2.1382,2.1382,0,0,0-2.8967.76,2.1643,2.1643,0,0,0,.76,2.8967Z"/><path class="cls-3" d="M475.88,304.6193q-2.4-3.3348-4.7965-6.6724l-3.4668,3.4667c12.7357,9.6506,26.2281,18.2974,38.9084,28.0117l.75-5.7417a8.16,8.16,0,0,1-10.8739-4.1813c-1.3972-2.921-6.5617-.8151-5.2976,2.2334,2.89,6.9692,10.5609,10.9446,17.8417,8.0063,2.471-.9972,3.183-4.1871.7505-5.7417-13.4315-8.5841-26.1318-18.3037-39.5218-26.9624-2.0285-1.3118-5.0182,1.409-3.4667,3.4667q2.4789,3.2879,4.9427,6.5871c1.8571,2.4779,6.0883.11,4.23-2.4724Z"/><path class="cls-3" d="M512.4094,265.74c4.6344,2.9769,9.495,5.5889,14.287,8.3027l2.1611-5.1261c-6.597-2.1039-13.2933-3.9281-19.94-5.8679-3.1347-.9148-4.4323,3.227-2.087,4.95a150.4048,150.4048,0,0,0,26.0536,15.4855c2.8276,1.3059,6.3675-2.3,3.6047-4.6719a223.68,223.68,0,0,0-24.4822-18.25l-2.6715,4.57a98.5674,98.5674,0,0,1,23.7678,16.917l3.6666-4.7521c-11.2239-5.9121-22.4861-11.7466-33.6636-17.7481-2.9509-1.5844-5.5342,2.7987-2.63,4.5,10.9338,6.4035,21.9843,12.6494,33.2394,18.4738,2.9357,1.5192,6.2867-2.3071,3.6666-4.7521a100.8984,100.8984,0,0,0-25.3753-17.2084,2.6486,2.6486,0,0,0-2.6715,4.57,220.1722,220.1722,0,0,1,22.947,17.886l3.6047-4.6719a141.2194,141.2194,0,0,1-26.3223-15.0258l-2.087,4.95c6.6211,2.0315,13.22,4.1867,19.8894,6.0534,2.9973.8389,5.0444-3.6492,2.1611-5.1261-4.9127-2.5162-9.7778-5.1442-14.8232-7.3854-2.629-1.1678-4.8106,2.31-2.2949,3.9261Z"/><path class="cls-3" d="M234.7041,292.3853a169.2927,169.2927,0,0,1-6.6859,27.5982c-3.1731,9.4136-7.7147,17.9612-11.937,26.8958a2.9594,2.9594,0,0,0,5.1067,2.985c10.7887-16.44,16.2365-37.5038,18.2888-56.8331.2863-2.697-4.3445-3.3521-4.7726-.6459Z"/><path class="cls-3" d="M279.9413,291.83a205.6316,205.6316,0,0,1-17.4762,46.65,3.1726,3.1726,0,0,0,1.11,4.2339,7.0291,7.0291,0,0,0,5.6693.9981c3.211-.5435,2.4446-5.7711-.7653-5.6549l-1.154-.2034.4838,3.75a160.5878,160.5878,0,0,0,16.592-48.5446c.4818-2.875-3.7386-4.1745-4.46-1.2295Z"/><path class="cls-3" d="M322.8336,280.4374c-4.7863,18.1743-11.4357,35.4115-18.6891,52.7151-.8684,2.0718,1.2791,4.1205,3.1816,4.1766a8.2642,8.2642,0,0,0,7.173-3.0972c2.0133-2.3188-.7385-6.7258-3.5361-4.5829a3.6137,3.6137,0,0,1-3.6369,1.0812l2.849,4.9648c7.5527-17.2718,12.9789-35.6552,17.3443-53.9658.7239-3.0366-3.887-4.3249-4.6858-1.2918Z"/><path class="cls-3" d="M363.335,276.967c1.9868-1.4447,3.9376-2.92,6.0264-4.2145l-4.3955-3.3791a151.356,151.356,0,0,0-1.9365,17.4965c-.469,5.9226-1.214,12.0481-.9218,17.9938.408,8.3,5.6042,15.0621,14.51,14.0457,8.0492-.9187,12.8854-8.0956,13.4253-15.76a27.6287,27.6287,0,0,0-2.9581-13.5375c-1.8211-3.9123-4.0111-8.8464-8.3172-10.3686a3.1244,3.1244,0,0,0-3.0345.8021l-.6248.5664c-1.7146,1.5543-.46,5.1183,2.008,4.8479.622-.0681,3.9619,7.5431,4.3185,8.45a18.9743,18.9743,0,0,1,1.46,9.4862c-.6593,4.8921-6.2592,11.7079-11.59,7.2455-3.929-3.289-1.8115-14.39-1.6339-18.85.2865-7.1955,1.1548-14.4264,1.1719-21.6216a3.0244,3.0244,0,0,0-5.1079-2.1158c-1.6974,1.79-3.5442,3.4079-5.3684,5.0672-2.02,1.8374.6936,5.5006,2.968,3.8467Z"/><path class="cls-3" d="M377.4932,273.5073c-8.2975,16.7284-14.4988,35.6068-18.7006,53.7808a153.4729,153.4729,0,0,0-3.9279,26.66c-.38,7.43.62,15.5156-1.896,22.6639-1.3682,3.8873-3.7479,5.4205-6.8335,7.8342-2.1029,1.6451-3.7145,3.9041-3.0633,6.7211.7337,3.1737,4.6631,5.564,6.9265,7.5373L361.7043,408.91c7.2811,6.3479,15.0046,12.42,21.9487,19.1354,2.4254,2.3458,2.7522,2.8585.9571,5.72-1.327,2.1157-3.66,4.0239-5.3407,5.8787-3.5573,3.9261-7.0544,7.906-10.5666,11.8723-2.5067,2.8308,1.562,6.981,4.1819,4.1819,3.6164-3.8639,7.2477-7.714,10.82-11.619,2.6848-2.9351,6.562-6.0394,8.13-9.7976,3.12-7.4774-6.3735-13.0278-11.0186-17.0947L357.4505,396.73c-1.7809-1.5593-4.4558-3.2058-5.8414-5.1143q-2.25-.7377-1.0337-2.2381,1.1376-.6406,2.2095-1.3858a18.2575,18.2575,0,0,0,5.5234-6.4011c3.1187-5.886,3.3543-12.8691,3.47-19.38a164.5315,164.5315,0,0,1,2.9569-29.4277,253.0309,253.0309,0,0,1,7.8233-28.8684c3.0935-9.4871,7.0824-18.7592,9.8039-28.3546.8048-2.838-3.501-4.8114-4.8693-2.0529Z"/><path class="cls-3" d="M117.65,345.3958c-1.0333,1.4125-1.262,3.1607-2.0377,4.7261a19.563,19.563,0,0,1-3.1975,4.4578,25.0181,25.0181,0,0,1-8.8188,5.8408c-2.927,1.2726-.843,6.1384,2.1732,5.1549a23.4542,23.4542,0,0,0,11.0512-7.9293c2.3759-3.01,5.2522-7.8385,4.5922-11.7586-.3264-1.9386-2.839-1.7543-3.7626-.4917Z"/><path class="cls-3" d="M497.7787,352.7342c.0266.0051-.4553-.0944-.4154-.0343a.5157.5157,0,1,0,0,.52c-.04.06.442-.0394.4154-.0342a.2361.2361,0,0,0,0-.452Z"/><path class="cls-3" d="M497.6568,353.1714c8.6879,1.6912,17.4637,3.2211,26.2782,4.0814v-1.5883a74.8674,74.8674,0,0,0-20.657,5.4052.7684.7684,0,0,0,0,1.4674c6.4039,1.7538,12.77,3.6231,19.139,5.4987v-1.8852c-3.8685,1.1008-7.7252,2.243-11.5979,3.3292a1.0077,1.0077,0,0,0,0,1.9242l4.0846,1.6833-.4592-1.74c-4.2121,5.3981-6.57,10.708-9.109,16.9664-.1781.4389.5835.7643.7711.325,2.3762-5.5644,6.3371-11.18,9.9725-16.03.443-.5909-.0681-1.3132-.622-1.5289l-4.1075-1.6v1.9242c3.8555-1.1462,7.7274-2.2366,11.5871-3.3682a.9856.9856,0,0,0,0-1.8852c-6.4309-1.6516-12.8558-3.3069-19.2542-5.0809v1.4674a73.3735,73.3735,0,0,1,20.2525-5.2843.7947.7947,0,0,0,0-1.5883c-8.7465-.8462-17.4551-1.6574-26.1536-2.9451-.2913-.0432-.4254.3934-.1246.452Z"/><path class="cls-3" d="M578.722,426.8182c-1.8714.7293-2.41,3.5128-3.0518,5.27-.9927,2.7186-2.16,5.717-1.85,8.6444.0889.84,1.4019,1.501,1.8343.4968,1.0428-2.4216,1.2247-5.09,1.8843-7.6376.5038-1.9459,2.2118-4.6973,1.4718-6.61a.2374.2374,0,0,0-.2883-.1637Z"/><path class="cls-3" d="M567.4983,424.4687a67.2517,67.2517,0,0,0-5.8679,15.065l1.38-1.0512-1.7623-1.0284c-.1456-.4834-.9752-.422-.9207.1246a4.3521,4.3521,0,0,0,1.96,3.5718,1.4366,1.4366,0,0,0,1.9589-.5136,67.6536,67.6536,0,0,0,4.879-15.482c.1662-.9359-1.1124-1.6318-1.6279-.6862Z"/><path class="cls-3" d="M559.8867,420.6918c-1.4957,1.8982-1.0141,4.4014-1.12,6.7461a85.5877,85.5877,0,0,0-.3128,10.5817l2.7464-.7439-1.1137-1.8041a1.1773,1.1773,0,0,0-2.1419.903l.5619,2.0368a1.4812,1.4812,0,0,0,2.8949-.3918,80.1437,80.1437,0,0,0-.177-9.92c-.0842-2.436.4963-5.3694-1.0431-7.37-.0646-.0838-.2112-.1437-.2945-.0379Z"/><path class="cls-3" d="M197.3085,408.3231c-1.73,5.4751-4.2041,11.5273-4.8487,17.25-.2816,2.5,2.3685,5.2281,4.5056,2.7915a1.8581,1.8581,0,0,0,.4738-1.7925l-.1062-.3076a1.75,1.75,0,0,0-3.3448,0l-.1021.3076,1.2868-1.2867.8006.0592,1.043,1.8184c-.01-2.621,1.4949-5.9341,2.1686-8.4919.8064-3.0618,1.4414-6.1552,2.1011-9.2518a2.0643,2.0643,0,0,0-3.9777-1.0966Z"/><path class="cls-3" d="M204.5393,415.937c-1.8952,4.0649-2.6407,10.5271.45,14.2323a.8516.8516,0,0,0,1.44-.5967c-.0878-2.1878-1.0025-4.2209-1.3024-6.387a41.3489,41.3489,0,0,1-.2383-7.1539.1889.1889,0,0,0-.3494-.0947Z"/><path class="cls-3" d="M216.3537,416.7282a28.6719,28.6719,0,0,0-.3255,11.6587c.3172,1.5554,2.5943.8729,2.3505-.648a70.8761,70.8761,0,0,1-1.1963-10.8985c-.0025-.4629-.7282-.59-.8287-.1122Z"/><path class="cls-3" d="M123.1169,417.6449c-.2357,2.77-.1812,5.5108-.1442,8.2889.0328,2.4634-.142,4.68,1.3312,6.7645a1.376,1.376,0,0,0,2.3476,0c1.3084-2.4085.8243-4.6856.5439-7.3171-.2918-2.74-.5714-5.436-1.1321-8.135-.365-1.7569-2.8114-1.1877-2.9464.3987Z"/><path class="cls-3" d="M135.4126,420.9886q.7119,5.223,1.4286,10.4453c.161,1.1653,2.059.7049,1.808-.4984q-1.0688-5.1244-2.1517-10.246c-.1527-.725-1.18-.3963-1.0849.2991Z"/><path class="cls-3" d="M313.4483,411.42c.8329,4.5566,2.0848,9.9916,5.0243,13.6909.7937.9988,2.6928-.086,2.1937-1.2769-.8262-1.9715-2.0741-3.7342-3.0376-5.6472a45.6137,45.6137,0,0,1-2.8244-7.1406.7037.7037,0,0,0-1.356.3738Z"/><path class="cls-3" d="M326.23,411.6129a19.46,19.46,0,0,1,2.3721,6.7973c.2769,2.16-.0447,4.3005.18,6.4571a.9423.9423,0,0,0,1.8415.2492c1.3191-4.5423-1.0127-10.2417-3.341-14.1187a.61.61,0,0,0-1.0523.6151Z"/><path class="cls-3" d="M270.5742,433.4335c5.1182,1.1225,10.23,2.2823,15.36,3.3492v-3.8316a110.9528,110.9528,0,0,1-23.6463,5.672c-2.2249.2756-3.3376,4.01-.5942,4.3908,6.2492.8664,12.5,1.8848,18.7752,2.5373v-4.5676c-1.4711.14-2.9024.28-4.3517.5635-1.6552.3242-1.5616,2.87,0,3.2544a37.7083,37.7083,0,0,0,3.7446.6681c2.8578.4095,4.1329-3.9339,1.2143-4.4044-6.2292-1.0043-12.5287-1.6511-18.7882-2.4421l.5943,4.3908a105.2582,105.2582,0,0,0,24.1083-6.2312c1.61-.6258,2.1466-3.4662,0-3.8316-5.1893-.8832-10.3952-1.6735-15.5938-2.5008-1.9224-.306-2.8015,2.5492-.8224,2.9832Z"/><path class="cls-3" d="M125.0339,440.2608c-4.183-1.0795-9.84-.5372-13.9771.584-1.1.2982-.7352,1.7125.2492,1.8415,4.1726.5469,9.7809.34,13.7279-1.25a.6152.6152,0,0,0,0-1.1752Z"/><path class="cls-3" d="M79.8992,445.9362a3.1209,3.1209,0,0,1-2.8013.388c-.7613-.2467-1.54-.5551-2.2926-.8373-.8924-.3346-1.5642.9512-.9121,1.567a3.4188,3.4188,0,0,0,3.2451.9879,8.2824,8.2824,0,0,0,3.2341-1.2961c.4908-.3377.0486-1.128-.4732-.81Z"/><path class="cls-3" d="M79.6837,407.6859c-4.1176-.7214-8.4073-.478-12.5834-.7726-4.5674-.3223-9.5077-1.0239-14.0391-.444-.455.0582-.7666.6991-.26.9608,7.1811,3.7117,19.0854,4.49,26.8828,2.6062a1.2281,1.2281,0,0,0,0-2.35Z"/><path class="cls-3" d="M85.889,398.172c2.6144-.4353,5.1985-.8922,7.7787-1.5023,1.411-.3337.921-2.1863-.3163-2.3372-9.6264-1.1741-19.6763-.601-29.3065.26-1.835.1641-1.8684,3.0362,0,2.895,3.7788-.2853,7.55-.6815,11.3223-1.0407,1.4739-.14,1.53-2.4049,0-2.3437-3.7741.1507-7.5519.2646-11.3223.4894v2.895c9.8253-.9753,19.464-.7323,29.3065-.7753l-.3163-2.3372c-2.5224.97-4.9494,2.06-7.3989,3.1973-.3625.1683-.0853.656.2528.6Z"/><path class="cls-3" d="M97.6614,379.3733a54.46,54.46,0,0,1,8.6708.2316v-2.1723c-4.394-.126-8.7972-.0677-13.1931-.083a1.16,1.16,0,0,0,0,2.3183l4.4756.046a1.1721,1.1721,0,0,0,0-2.3427,59.9087,59.9087,0,0,0-11.9635.8457c-.9375.1585-.6431,1.5289.2139,1.58l4.66.2787c.86.0514.8158-1.2119,0-1.3125l-4.66-.5751v1.6089a61.0773,61.0773,0,0,1,11.75-.0832v-2.3427l-4.4756-.0216v2.3183c4.3958-.0087,8.799.0563,13.1931-.063a1.0868,1.0868,0,0,0,0-2.1723,26.0336,26.0336,0,0,0-8.758,1.2961c-.3366.111-.2994.6618.0872.6446Z"/><path class="cls-3" d="M97.7222,385.93a113.9239,113.9239,0,0,0-15.3919-.5549V387.67a66.2186,66.2186,0,0,1,15.3377.6682L97.2,386.565c-10.1139,8.9477-25.5986,10.792-37.9952,15.18a.9852.9852,0,0,0,.5234,1.8984c13.1742-3.2766,28.4347-6.4608,38.9719-15.5783a1.0666,1.0666,0,0,0-.4681-1.7729,68.794,68.794,0,0,0-15.9016-.917,1.148,1.148,0,0,0,0,2.2945,113.9658,113.9658,0,0,0,15.3919-.6146.5629.5629,0,0,0,0-1.125Z"/><path class="cls-3" d="M534.91,324.2215c6.1268-2.2726,8.4695-9.05,9.6289-15.0336,1.4-7.2258-1.68-13.6468-7.0689-18.4245-5.3017-4.7-11.5391-8.1783-18.6077-5.3412-8.0692,3.2389-12.41,11.8976-20.7557,14.5322l2.0057,4.7573,22.4316-10.6783c3.543-1.6866,7.0616-3.4576,10.6432-5.06,3.3091-1.4809,15.5383-4.71,13.1246,3.6786l3.4233-1.3928c-4.7406-2.1866-19.1359-9.3066-21.2932-.7742-.9729,3.8482,1.0543,8.4693,2.2955,12.0184,1.96,5.603,4.4509,11.2,3.1193,17.2454l5.3707.7268a101.1381,101.1381,0,0,0-1.57-27.6062c-.5886-3.1559-5.7544-2.4381-5.601.758q.3508,7.3076.7291,14.6137l5.5949-.7572c-4.6308-12.784-16.517-26.4742-31.6143-20.1265-3.2452,1.3644-2.0813,6.5914,1.5067,5.4651a28.2252,28.2252,0,0,1,27.607,5.87l2.8727-4.9349c-13.7842-2.5908-27.71-4.83-41.5979-1.633-2.8576.6579-2.2012,5.08.6859,5.0682a16.5141,16.5141,0,0,0,9.1966-2.6272c2.865-1.7835.2068-6.3542-2.65-4.5332a11.4552,11.4552,0,0,1-6.5468,2l.6859,5.0681c12.9234-3.1216,25.9181-.3978,38.6563,2.3512,2.6885.58,5.22-2.8506,2.8727-4.9348a34.1211,34.1211,0,0,0-33.2893-7.1592l2.1837,5.1794c11.6453-4.996,20.5293,6.9868,23.9375,16.4615,1.0242,2.8473,5.76,2.6511,5.5949-.7572q-.3549-7.3072-.7229-14.6137l-5.601.7581a110.581,110.581,0,0,1,1.6006,26.09c-.1432,3.0274,4.8281,3.7925,5.3708.7269,1.1707-6.6144-.8023-12.3029-3.2642-18.397-.94-2.3276-4.0778-7.5481-3.2869-9.9528,1.2959-3.94,13.0816,1.6838,14.804,2.431a2.3705,2.3705,0,0,0,3.4234-1.3927c2.6088-9.9194-8.8842-12.7054-16.0963-10.1364-12.6835,4.5179-24.9311,10.9752-37.2248,16.4627-2.7211,1.2146-.778,5.5613,2.0056,4.7573,4.337-1.2528,7.7158-3.9379,10.9213-7.0335,5-4.8284,10.7617-11.3447,18.3242-7.3921,4.9945,2.6105,10.6842,8.0119,11.2971,13.87.5642,5.3935-1.6463,13.9551-6.2067,17.2324-1.1885.8541-.5287,3.1683,1.0836,2.57Z"/><path class="cls-3" d="M478.8542,274.7351A55.2282,55.2282,0,0,0,491.14,293.2576a1.7535,1.7535,0,0,0,2.9607-1.2264,12.5607,12.5607,0,0,0-3.7261-8.9171,1.8782,1.8782,0,0,0-3.1707,1.3133q-.2374,6.21-.4448,12.42l3.9726-.5376-4.0774-11.8679a2.1507,2.1507,0,0,0-4.144,1.1424,48.3014,48.3014,0,0,0,8.1569,19.2862,2.385,2.385,0,0,0,4.297-.5616c3.0227-10.0553,1.9564-21.3.1239-31.5083-1.5622-8.7028-5.6373-16.8357-14.5506-19.656l-1.1615,4.2131q13.0929,2.8212,26.1858,5.6425c3.0513.6576,4.3315-3.8274,1.296-4.7009a178.1662,178.1662,0,0,1-27.3351-10.33l-1.7336,4.1122a83.2186,83.2186,0,0,1,24.7217,7.4484l1.1928-4.4039a39.5081,39.5081,0,0,1-19.5566-2.7447l-1.1551,4.19c7.8758,2.1356,15.6944,4.4767,23.5283,6.76l.5933-4.3837c-9.4577-.7558-18.8308-1.8657-28.17-3.5607l-1.1526,4.1811c7.5083,1.3244,14.9973,2.7564,22.5119,4.0457a2.1719,2.1719,0,0,0,1.1536-4.1847,179.2462,179.2462,0,0,0-22.9436-7.7326l-.5262,3.8879a53.7052,53.7052,0,0,1,13.4889,2.65l1.0684-3.8756c-6.7412-2.1967-13.5658-4.1483-20.3449-6.2252-5.2889-1.62-11.0927-4.6718-16.7577-4.3078-8.9564.5756-14.6121,9.734-18.381,16.8086a1.9106,1.9106,0,0,0,1.634,2.8474,128.1423,128.1423,0,0,0,21.8885-2.8623c2.2024-.4738,1.717-4.0051-.5317-3.9283l-25.5558.8729c-2.53.0864-2.55,3.9681,0,3.9462a125.1538,125.1538,0,0,0,25.8445-2.8956c1.9684-.4317,1.8791-3.4092,0-3.8941a12.1843,12.1843,0,0,0-8.6854.82c-1.9948.9024-.7874,3.6745,1.0279,3.795a51.3717,51.3717,0,0,1,15.5915,3.5353V258.868c-8.5609,1.2983-18.2456.4138-25.7019,5.5776-4.9769,3.4467-8.6105,9.2771-7.1266,15.4815,1.6869,7.0538,8.6505,11.0624,14.6546,14.0852a94.6662,94.6662,0,0,0,26.4754,8.6823,2.9759,2.9759,0,0,0,3.6125-3.6125,89.3664,89.3664,0,0,1-2.3533-32.6094l-3.6956,2.8152A440.8558,440.8558,0,0,1,527.828,283.28l.7967-5.887c-6.6747-.0559-13.3626.2132-20.036.35-2.7047.0554-3.5694,4.4876-.6678,4.9337a105.1457,105.1457,0,0,0,18.7695,1.35,2.3588,2.3588,0,0,0,.6241-4.611,105.4953,105.4953,0,0,0-14.9887-3.7437l-.5982,4.42a13.0238,13.0238,0,0,1,6.4478,2.0975c2.4232,1.4957,4.6119-2.2889,2.2239-3.8046a17.4978,17.4978,0,0,0-8.6717-2.7929c-2.5056-.1764-3.097,3.9426-.5981,4.42a112.0124,112.0124,0,0,1,14.9369,3.9315l.624-4.611a76.982,76.982,0,0,1-17.434-1.4988l-.6677,4.9337c6.6731.2269,13.3591.5864,20.036.6207,3.461.0177,3.9622-4.8553.7968-5.8871a440.919,440.919,0,0,0-53.73-13.8424,2.9788,2.9788,0,0,0-3.6956,2.8152,95.3124,95.3124,0,0,0,2.5287,34.1708l3.6125-3.6125a100.93,100.93,0,0,1-19.2026-5.3144c-5.5364-2.1619-12.7717-4.9278-16.5284-9.7891-5.0572-6.5441.652-13.4988,7.1276-16.016,6.2222-2.4187,13.316-2.0191,19.8441-3.04,2.2488-.3518,1.67-3.3573,0-4.0031a55.1133,55.1133,0,0,0-16.6951-3.6053l1.0278,3.795a6.7507,6.7507,0,0,1,5.5561-.4432V254.72a116.2151,116.2151,0,0,1-24.7709,2.8435V261.51l25.5558-.8193-.5316-3.9283a159.1591,159.1591,0,0,1-20.8252,2.9345l1.6339,2.8474c4.11-8.4686,9.6135-17.486,20.3343-14.5315,10.4273,2.8736,20.5146,6.9363,30.813,10.2213,2.47.7878,3.5272-3.0913,1.0684-3.8756a62.2632,62.2632,0,0,0-14.5573-2.7328c-2.2658-.1644-2.6305,3.2979-.5262,3.8879a175.4926,175.4926,0,0,1,22.324,7.8813l1.672-3.9659c-7.4935-1.4067-15.0128-2.6706-22.5129-4.0421-2.7246-.4982-3.9,3.6647-1.1526,4.1811a249.5491,249.5491,0,0,0,29.3225,3.8431c2.5513.1717,2.9729-3.7225.5933-4.3838-7.8617-2.1849-15.7406-4.313-23.56-6.6459-2.2991-.6859-3.964,2.9553-1.674,3.9706a40.101,40.101,0,0,0,21.2306,3.5006c2.0311-.2368,3.5827-3.3091,1.1928-4.4038a96.4233,96.4233,0,0,0-25.9111-7.7062c-2.2918-.3464-4.2336,2.8846-1.7337,4.1122A185.6349,185.6349,0,0,0,505.5621,263l1.296-4.7009q-13.16-2.5764-26.32-5.1547c-2.734-.5355-3.8882,3.4066-1.1615,4.2131,9.2285,2.73,10.4957,13.4,11.5018,21.5266,1.0047,8.1142,1.8424,16.1942-.4476,24.1746l4.297-.5616a46.33,46.33,0,0,1-8.0729-18.0554l-4.144,1.1424,4.321,11.8007c.7588,2.0722,3.9428,1.8533,3.9726-.5376q.0774-6.21.1148-12.42l-3.1707,1.3134a8.5022,8.5022,0,0,1,2.884,6.29l2.9607-1.2264a67.8318,67.8318,0,0,1-12.4255-17.045c-.6336-1.2585-2.873-.3577-2.3133.9753Z"/><path class="cls-3" d="M557.9881,315.2919a18.7217,18.7217,0,0,0-6.9184,4.5544l2.3638.9791a40.7352,40.7352,0,0,0-1.2867-14.9541c-.3227-1.2186-2.3127-1.6563-2.8888-.3775a26.7174,26.7174,0,0,0-2.58,12.8977,24.5579,24.5579,0,0,0,1.3593,6.5746,23.7451,23.7451,0,0,0,1.1639,2.635c.9957,1.9713,2.3985,2.3854-1.5756,2.8823-5.3712.6715-12.1459-1.6171-17.2582-3.208a82.98,82.98,0,0,1-17.2563-7.7226c-2.1328-1.2473-4.7932,1.9173-2.73,3.5378a49.8311,49.8311,0,0,0,24.7352,10.4687c2.3136.3068,2.7845-3.0534,1.112-4.1054q-1.6179-1.03-3.2586-2.024a1.8358,1.8358,0,0,0-2.2154,2.8712q1.3872,1.3224,2.8042,2.613l1.5578-3.761a42.9194,42.9194,0,0,1-21.55-9.2481l-2.73,3.5379c10.3095,6.25,24.73,13.0018,37.1153,11.916,3.6584-.3207,8.7491-2.0967,7.0159-6.7261-1.1221-2.9969-3.3056-5.1686-4.1216-8.4645a19.8928,19.8928,0,0,1,1.1406-13.0791l-2.8888-.3776a47.7718,47.7718,0,0,1,1.5654,14.1138,1.3985,1.3985,0,0,0,2.3639.9792c1.7135-2.02,3.5076-3.9263,5.37-5.8076.2781-.2807,0-.8615-.41-.7051Z"/><path class="cls-3" d="M436.3746,252.48a55.5166,55.5166,0,0,1,4.9425-4.18c.5838-.4358.8362-1.5237,0-1.9q-6.1846-2.7863-12.3783-5.5528v2.6714a10.923,10.923,0,0,1,9.002-2.2793l.428-3.1629a11.7057,11.7057,0,0,1-5.7562-1.6213l-.9091,3.3564a56.5955,56.5955,0,0,1,11.6189.994V236.533a32.3739,32.3739,0,0,1-10.1664.8544,2.2872,2.2872,0,0,0-2.2452,2.2453,20.8388,20.8388,0,0,0,.7511,8.644,2.635,2.635,0,0,0,3.1639,1.7964,40.0122,40.0122,0,0,0,10.1217-3.78,2.5525,2.5525,0,0,0-.6033-4.6163c-14.327-3.6794-23.8555,8.6638-29.1546,20.1644-1.16,2.5174,1.4559,6.2661,4.2655,4.2655a126.8711,126.8711,0,0,0,18.5225-16.3485,2.7432,2.7432,0,0,0-3.8772-3.8771,91.8709,91.8709,0,0,0-16.0959,19.5673,2.6853,2.6853,0,0,0,2.9979,3.9,30.8135,30.8135,0,0,0,6.7311-2.382c2.2082-1.0632.6561-4.652-1.6615-3.9411a24.2771,24.2771,0,0,1-5.7753,1.1087l2.2921,3.9944a82.4481,82.4481,0,0,1,15.3888-18.37L434.1,245.8815a150.28,150.28,0,0,1-17.7924,14.8416l4.58,3.5208c3.5239-9.08,10.4764-21.0776,22.1136-17.6958l-.6034-4.6163a45.67,45.67,0,0,1-8.94,3.1811l3.1639,1.7963a17.4118,17.4118,0,0,1-1.2209-7.2765l-2.2453,2.2452A36.3263,36.3263,0,0,0,444.5,240.8055c2.0181-.5065,2.2042-3.8888,0-4.2725a44.954,44.954,0,0,0-12.7968-.3238c-1.5433.1651-2.739,2.5529-.9091,3.3564a19.133,19.133,0,0,0,7.5744,1.7312c2.13.0515,1.991-2.9652,0-3.22a14.5326,14.5326,0,0,0-10.9915,2.7708,1.5717,1.5717,0,0,0,.37,2.8273q6.3615,2.3675,12.7224,4.7368l-.4856-1.8393a11.1413,11.1413,0,0,0-3.8441,5.7716.1417.1417,0,0,0,.2351.1368Z"/><path class="cls-3" d="M377.6739,442.4844l4.6852-2.4581a.853.853,0,0,0,.17-1.32c-1.9578-2.4556-4.73-2.3461-7.3708-1.0069-5.2429,2.6586-9.9971,6.9831-14.6775,10.5a1.561,1.561,0,0,0-.3118,2.42,155.1013,155.1013,0,0,0,14.2424,10.6277,1.6306,1.6306,0,0,0,2.2109-.58c2.7288-5.0391-.6061-12.2466,2.9524-16.5771a1.8484,1.8484,0,0,0-1.7818-3.0608,23.8784,23.8784,0,0,0-14.3048,8.35c-1.2818,1.536.4146,4.3622,2.3188,3.0053l12.9867-9.2534a1.9973,1.9973,0,0,0-2.0144-3.4463,59.6357,59.6357,0,0,0-13.675,8.2386c-1.4113,1.1206-.2336,3.6354,1.4675,3.5427a7.5266,7.5266,0,0,1,7.9957,5.44c.6983,2.2747,4.2226,1.9043,4.211-.57a17.0854,17.0854,0,0,1,3.8512-11.2781l-3.7028-2.1555a65.81,65.81,0,0,1-6.55,13.0757l4.2105,1.14a64.3025,64.3025,0,0,1,1.4579-18.2432c.4625-2.0411-2.2571-4.09-3.812-2.2191-3.5389,4.2589-8.3635,8.61-10.5107,13.7575-.5885,1.4106,1.3608,2.7356,2.5478,1.9587,4.4795-2.932,7.7974-8.3914,11.1883-12.4907l-3.8119-2.2191a68.787,68.787,0,0,0-1.5784,19.4559,2.2792,2.2792,0,0,0,4.2105,1.14,68.4282,68.4282,0,0,0,6.92-14.1786c.7147-2.0126-2.33-3.892-3.7027-2.1554a21.9768,21.9768,0,0,0-5.0058,14.4111l4.2111-.57a11.7224,11.7224,0,0,0-12.13-8.4506l1.4674,3.5427a55.9284,55.9284,0,0,1,12.7545-7.7272l-2.0144-3.4463L363.8754,449.08l2.3188,3.0053a20.8223,20.8223,0,0,1,12.5724-7.5242l-1.7818-3.0608c-4.2479,5.3827-.177,11.9241-3.1531,17.5357l2.2109-.58a148.0132,148.0132,0,0,1-13.6949-10.0157l-.3118,2.42c2.4178-1.85,4.861-3.67,7.2538-5.5517,2.2518-1.7707,8.8087-9.02,12.0512-5.4139l.17-1.32-4.6415,2.5329c-.9027.4926-.1025,1.852.8044,1.3762Z"/><path class="cls-3" d="M204.3311,313.1762c-3.6142,6.3579.5218,14.855,3.0444,20.93,2.93,7.0554,6.4464,13.7135,11.9728,19.0837,1.7888,1.7382,5.0893-.5624,3.5744-2.7579a171.5873,171.5873,0,0,0-12.039-15.7493c-2.1243-2.4231-4.5046-4.5983-6.6459-7a14.3352,14.3352,0,0,1-2.7831-4.1555c-1.3119-3.2416-.2517-8.897,4.6579-7.2857,1.8053.5925,3.0025-2.2019,1.3-3.0843-7.9908-4.1425-12.6275,5.4005-9.9217,12.0463,1.8349,4.5067,5.9635,7.74,9.1219,11.2812a191.8207,191.8207,0,0,1,12.3794,16.2441l3.5743-2.7579c-4.81-4.5088-8.0215-10.0427-10.7287-15.9946-3.0573-6.7217-5.9518-12.7221-5.4979-20.2565a1.0863,1.0863,0,0,0-2.0091-.5441Z"/><path class="cls-3" d="M475.6368,340.21c-7.7452-6.6986-21.8553,1.1774-27.52,7.2048-7.3676,7.8392-11.8,21.0134-3.8528,30.02,3.5234,3.9932,8.597,6.2363,13.5552,7.877,5.8278,1.9284,12.4019,3.7751,18.5954,3.5647,12.9039-.4384,18.0211-12.6771,19.0549-23.8915.5813-6.3068-.9412-12.2639-6.4318-15.91-5.9246-3.9345-14.1217-5.537-21.0284-6.4325-.7134-.0924-.9259.9941-.3549,1.31,5.1652,2.86,10.9473,4.1157,16.0948,6.9245,7.1333,3.8922,7.0017,10.1194,5.35,17.2961-1.3459,5.8468-3.6283,11.8226-9.9261,13.6784-5.7729,1.7011-11.5807.6931-17.2419-.9107-4.7521-1.3463-10.0172-3.0276-13.4781-6.7538-4.8564-5.2286-3.4267-12.6526-.1083-18.2956a27.393,27.393,0,0,1,11.6992-10.69,20.8866,20.8866,0,0,1,8.1434-2.2c2.327-.11,4.3839.4986,6.6844.1062a1.7439,1.7439,0,0,0,.7654-2.8988Z"/><path class="cls-3" d="M468.1808,366.8933c2.6015.099,10.5537,1.8231,10.07-3.0614-.4528-4.57-5.7369-3.2712-8.415-1.9784-.8516.4111-.4,1.707.4643,1.7143,2.6449.0223,5.9427-.5524,6.9022-3.4565a3.6034,3.6034,0,0,0-2.5-4.8355l-.1732,1.28a32.8662,32.8662,0,0,1,10.818.9961l.3295-1.1952c-3.0673-.6643-6.3541-1.4016-9.5055-.8807-2.7981.4625-4.0605,2.184-6.4256,3.31-6.4575,3.0744-4.4075-.6625-7.7922-1.5248-.9635-.2455-1.9349.3788-2.8506.4591-3.86.3384-6.3241-.6166-8.7594-3.5634-.2746-.3323-.8033.0952-.589.4544a8.2157,8.2157,0,0,0,6.719,4.2675c1.8942.13,2.7091-.2583,4.6838.4753,2.4891.9248,1.09,1.09,2.7619,1.9119a4.999,4.999,0,0,0,5.1228-.2674c2.1008-1.2233,3.5866-3.1883,6.0273-3.9615,3.2716-1.0366,7.02-.1686,10.278.5147.7778.1632,1.111-1.0289.3295-1.1952a79.1643,79.1643,0,0,0-11.1475-1.1044.6565.6565,0,0,0-.329,1.2145q.0487,6.0445-3.9,5.2609l.4643,1.7143q4.0959,1.4733.5869,1.0681l-3.17-.0545a1.22,1.22,0,0,0,0,2.4375Z"/><path class="cls-3" d="M449.8235,355.3454l1.605,3.9886c.0222.0553.1129.0312.09-.0249l-1.605-3.9886c-.0223-.0553-.113-.0312-.09.0249Z"/><path class="cls-3" d="M448.94,353.7944l2.6051,3.9411c.657.9938,2.1765,2.5637,2.3914,3.7131.3241,1.733-1.2645,1.1886-2.2869,1.4162a1.8557,1.8557,0,0,0-1.2466.845l1.2561.53a3.2546,3.2546,0,0,0-.9054-3.4344c-.2955-.2955-.8225.0885-.589.4544a2.6868,2.6868,0,0,1,.169,2.6146c-.2877.7208.91,1.2227,1.2561.5295.6441-1.2917,3.32-.0909,3.33-2.2281.0054-1.1851-1.3941-2.5307-2.0282-3.4056l-3.7087-5.1173c-.1042-.1439-.3442-.0114-.2428.1419Z"/><path class="cls-3" d="M449.8669,358.5027a58.6352,58.6352,0,0,1-5.6294-2.7258c-.8686-.4808-1.8778.7089-1.0931,1.4168,2.8621,2.5818,3.6727,6.6778,6.526,9.2117,2.7267,2.4215,7.1927.2161,9.408,2.2946v-1.6123c-4.2229,3.6707,3.9324,5.4057,3.5264,7.7661a1.4582,1.4582,0,0,0,1.3817,1.8139,16.0282,16.0282,0,0,0,5.4337-.6586,1.7355,1.7355,0,0,0,1.0266-2.5234c-1.8222-2.9711-2.8333-5.546-2.0646-9.0935a1.4075,1.4075,0,0,0-2.7121-.7477c-1.2992,4.1941-.8107,8.5245,2.0788,11.9229l.758-2.8711a9.3905,9.3905,0,0,1-4.52,1.1055l1.4329,1.4329a3.325,3.325,0,0,0-.8014-2.6673c-.3772-.4873-5.05-3.2469-4.1581-3.6891a1.1546,1.1546,0,0,0,.2308-1.7906c-2.5514-3.021-6.3962-.4348-9.4-2.552-2.954-2.082-3.9843-6.2809-6.8707-8.6177l-.8777,1.5076a60.17,60.17,0,0,1,6.18,1.42c.198.0561.3445-.2581.1445-.3427Z"/><path class="cls-3" d="M464.141,359.5052c4.0918-.3664,4.9152-6.14,1.5815-8.21a5.8006,5.8006,0,0,0-6.3449.5115,6.5254,6.5254,0,0,0-2.29,2.3955c-.3533.854.2222,2.2131.5,3.04a5.9252,5.9252,0,0,0,4.4677,4.3162,3.4531,3.4531,0,0,0,4.1566-2.945,5.2636,5.2636,0,0,0-2.2883-5.0058c-2.4067-1.5741-5.297-.9555-7.8755-.2626a.8875.8875,0,0,0-.6128,1.0793l.857,2.7188a.6569.6569,0,0,0,1.2656-.3489l-.4306-2.8364-.846,1.1106c2.3478-.2538,7.3027-.85,7.4945,2.6482.0906,1.6533-1.693,2.0152-2.8788,1.21-1.4433-.98-1.8606-2.9337-2.2652-4.523l-.2172.8217c1.2067-1.3,4.1546-3.1143,5.8233-1.4591.819.8124.8632,2.9573-.4325,3.2531-1.366.3119-1.1015,2.6148.3365,2.486Z"/></svg>