<svg xmlns="http://www.w3.org/2000/svg" viewBox="0 0 150 70"><defs><style>.cls-1{fill:#dd3e28;}.cls-2{fill:#fff;}</style></defs><rect class="cls-1" width="150" height="70"/><path class="cls-2" d="M18.48,31.17a7.83,7.83,0,0,1-2.3-1,8.14,8.14,0,0,1-1.83-1.68,7.47,7.47,0,0,1-1.22-2.33,9.65,9.65,0,0,1-.44-2.95A10.14,10.14,0,0,1,13,20.5a7.78,7.78,0,0,1,1.06-2.32,8,8,0,0,1,1.7-1.83,7.54,7.54,0,0,1,2.35-1.2,9.54,9.54,0,0,1,2.94-.43,8.51,8.51,0,0,1,2.3.32,8,8,0,0,1,2.26,1,8.49,8.49,0,0,1,2,1.79l-2.39,2a6.06,6.06,0,0,0-1.86-1.5,4.77,4.77,0,0,0-2.31-.58,5.69,5.69,0,0,0-1.18.12,4.37,4.37,0,0,0-1.07.37,4.61,4.61,0,0,0-.92.58,4.44,4.44,0,0,0-.76.8,5.3,5.3,0,0,0-.93,2.16,6.32,6.32,0,0,0-.13,1.33,5.73,5.73,0,0,0,.63,2.71,4.62,4.62,0,0,0,1.77,1.87,5,5,0,0,0,2.59.67,5,5,0,0,0,2.32-.56,5.68,5.68,0,0,0,1.85-1.52l2.39,2a8.43,8.43,0,0,1-2.81,2.26,8.14,8.14,0,0,1-3.75.85A9.73,9.73,0,0,1,18.48,31.17Z"/><path class="cls-2" d="M36.19,19.87v3.32l-.8,0a2.76,2.76,0,0,0-2.13.82,3,3,0,0,0-.76,2.12v5.24h-3V20.05h3v1.66h0a4.62,4.62,0,0,1,1.53-1.37,3.91,3.91,0,0,1,1.9-.48Z"/><path class="cls-2" d="M48.58,20.05V31.34h-3V30h0A4.54,4.54,0,0,1,44,31.14a4.44,4.44,0,0,1-1.84.4,5.17,5.17,0,0,1-1.69-.26,3.59,3.59,0,0,1-1.31-.79A3.51,3.51,0,0,1,38.26,29a7,7,0,0,1-.3-2.18v-6.8h3v6a3.58,3.58,0,0,0,.47,2.14,1.83,1.83,0,0,0,1.56.61A2.26,2.26,0,0,0,44.82,28a3.71,3.71,0,0,0,.72-2.43V20.05Z"/><path class="cls-2" d="M52,22.56H50.77V20.05H52V18.11a5.17,5.17,0,0,1,.42-2.2,2.9,2.9,0,0,1,1.22-1.34,3.84,3.84,0,0,1,1.92-.45,5.6,5.6,0,0,1,1.69.25,5,5,0,0,1,1.24.57l-.61,2.37a4.13,4.13,0,0,0-1.7-.5c-.76,0-1.15.51-1.15,1.52v1.72h2.53v2.51H55v8.78H52Z"/><path class="cls-2" d="M60.7,30.58a4,4,0,0,1-.87-2.8V22.56H58.49V20.05h1.34V16.36l3-.33v4H66v2.51H62.87v4.8a2,2,0,0,0,.23,1.09.83.83,0,0,0,.76.35,3.18,3.18,0,0,0,1.43-.39l.79,2.41a6,6,0,0,1-1.31.54,6.59,6.59,0,0,1-1.7.18A3,3,0,0,1,60.7,30.58Z"/><path class="cls-2" d="M68.34,14.31h3v17h-3Z"/><path class="cls-2" d="M84.6,26.68H76.66a2.81,2.81,0,0,0,1,1.58,3,3,0,0,0,1.86.59,3.33,3.33,0,0,0,2.71-1.28l2,1.83a5.36,5.36,0,0,1-2,1.55,6.7,6.7,0,0,1-2.88.59,6.17,6.17,0,0,1-3-.72,5.31,5.31,0,0,1-2.09-2.06,6.11,6.11,0,0,1-.77-3.07,6.51,6.51,0,0,1,.43-2.36,5.59,5.59,0,0,1,1.18-1.85,5.11,5.11,0,0,1,1.78-1.19A6.07,6.07,0,0,1,82,20.6a5,5,0,0,1,2,2,6.24,6.24,0,0,1,.69,3A4.37,4.37,0,0,1,84.6,26.68ZM77.6,23a2.61,2.61,0,0,0-.93,1.47h5a2.75,2.75,0,0,0-.86-1.45,2.4,2.4,0,0,0-1.59-.53A2.61,2.61,0,0,0,77.6,23Z"/><path class="cls-2" d="M86.17,29.88l1.48-2.09a4.5,4.5,0,0,0,3.14,1.32,1.79,1.79,0,0,0,1-.26.78.78,0,0,0,.37-.68.61.61,0,0,0-.22-.46,2.62,2.62,0,0,0-.63-.36,12.39,12.39,0,0,0-1.21-.43c-.34-.12-.65-.23-.91-.34a8.93,8.93,0,0,1-.83-.4,4.43,4.43,0,0,1-.72-.52,3.66,3.66,0,0,1-.54-.63,2.8,2.8,0,0,1-.37-.8,3.81,3.81,0,0,1-.12-1,3,3,0,0,1,.54-1.78,3.38,3.38,0,0,1,1.46-1.19,5,5,0,0,1,2.08-.42,6.7,6.7,0,0,1,2.19.34,6.82,6.82,0,0,1,2,1.08L93.38,23.5A4.51,4.51,0,0,0,92,22.6a3.5,3.5,0,0,0-1.37-.3,1.38,1.38,0,0,0-.77.22.72.72,0,0,0-.34.63.78.78,0,0,0,.41.61,6.9,6.9,0,0,0,1.29.61,14.18,14.18,0,0,1,2.52,1.09,2.69,2.69,0,0,1,1.32,1.81,4.3,4.3,0,0,1,.06.75A3.21,3.21,0,0,1,94,30.57a5,5,0,0,1-3.27,1A6.79,6.79,0,0,1,86.17,29.88Z"/><path class="cls-2" d="M96.1,29.88l1.47-2.09a4.53,4.53,0,0,0,3.14,1.32,1.8,1.8,0,0,0,1-.26.81.81,0,0,0,.37-.68.62.62,0,0,0-.23-.46,2.28,2.28,0,0,0-.63-.36,12,12,0,0,0-1.2-.43c-.34-.12-.65-.23-.92-.34s-.54-.25-.82-.4a3.7,3.7,0,0,1-.72-.52,3.66,3.66,0,0,1-.54-.63,2.56,2.56,0,0,1-.37-.8,3.81,3.81,0,0,1-.13-1,3,3,0,0,1,.54-1.78,3.47,3.47,0,0,1,1.47-1.19,4.92,4.92,0,0,1,2.08-.42,6.6,6.6,0,0,1,2.18.34,6.87,6.87,0,0,1,2,1.08l-1.48,2.22a4.51,4.51,0,0,0-1.34-.9,3.5,3.5,0,0,0-1.37-.3,1.36,1.36,0,0,0-.77.22.7.7,0,0,0-.34.63.77.77,0,0,0,.4.61,7.06,7.06,0,0,0,1.3.61,14.54,14.54,0,0,1,2.52,1.09A2.64,2.64,0,0,1,105,27.27a3.48,3.48,0,0,1,.07.75A3.22,3.22,0,0,1,104,30.57a4.91,4.91,0,0,1-3.27,1A6.75,6.75,0,0,1,96.1,29.88Z"/><path class="cls-2" d="M18.4,55.85a7.85,7.85,0,0,1-2.3-1,8.14,8.14,0,0,1-1.83-1.68,7.47,7.47,0,0,1-1.22-2.33,9.56,9.56,0,0,1-.44-2.95A10.2,10.2,0,0,1,13,45.17,7.84,7.84,0,0,1,15.72,41a7.35,7.35,0,0,1,2.35-1.21A9.85,9.85,0,0,1,21,39.4a8.5,8.5,0,0,1,2.3.31,8.62,8.62,0,0,1,4.26,2.84l-2.39,2a6.09,6.09,0,0,0-1.86-1.51A4.77,4.77,0,0,0,21,42.49a5.69,5.69,0,0,0-1.18.12,5.41,5.41,0,0,0-1.07.37,4.65,4.65,0,0,0-.92.59,4.38,4.38,0,0,0-.76.79,5.67,5.67,0,0,0-.57,1,5.32,5.32,0,0,0-.36,1.17A6.38,6.38,0,0,0,16,47.85a5.7,5.7,0,0,0,.63,2.71,4.56,4.56,0,0,0,1.77,1.87,5,5,0,0,0,2.59.68,4.92,4.92,0,0,0,2.32-.57A5.77,5.77,0,0,0,25.18,51l2.39,2a8.46,8.46,0,0,1-2.81,2.27,8.27,8.27,0,0,1-3.75.85A9.73,9.73,0,0,1,18.4,55.85Z"/><path class="cls-2" d="M36.11,44.55v3.32c-.3,0-.57,0-.8,0a2.76,2.76,0,0,0-2.13.83,3,3,0,0,0-.76,2.12V56h-3V44.73h3v1.66h0A4.55,4.55,0,0,1,34,45a3.91,3.91,0,0,1,1.9-.48Z"/><path class="cls-2" d="M49,44.73V56h-2.9V54.65H46a4.05,4.05,0,0,1-3.39,1.56,5.56,5.56,0,0,1-2.17-.42,5.09,5.09,0,0,1-1.73-1.17,5.22,5.22,0,0,1-1.12-1.84,7,7,0,0,1,0-4.73,5.59,5.59,0,0,1,1.11-1.87,5.17,5.17,0,0,1,3.82-1.65A4.2,4.2,0,0,1,45.87,46h.05V44.73Zm-3.75,7.91A3,3,0,0,0,46,50.42a3.25,3.25,0,0,0-.81-2.26,2.63,2.63,0,0,0-2-.9,2.8,2.8,0,0,0-2.08.86,3.21,3.21,0,0,0-.83,2.3,3.1,3.1,0,0,0,.81,2.22,2.76,2.76,0,0,0,2.09.86A2.73,2.73,0,0,0,45.21,52.64Z"/><path class="cls-2" d="M52.29,47.23h-1.2v-2.5h1.2V42.78a5,5,0,0,1,.43-2.19,2.93,2.93,0,0,1,1.22-1.35,3.91,3.91,0,0,1,1.91-.44,5.37,5.37,0,0,1,1.7.25,5,5,0,0,1,1.24.56L58.18,42a4.13,4.13,0,0,0-1.7-.5c-.77,0-1.15.51-1.15,1.53v1.72h2.53v2.5H55.33V56h-3Z"/><path class="cls-2" d="M61,55.26a4.06,4.06,0,0,1-.87-2.81V47.23H58.81v-2.5h1.33V41l3-.32v4h3.09v2.5H63.18V52a2,2,0,0,0,.24,1.1.85.85,0,0,0,.76.35,3.08,3.08,0,0,0,1.43-.4l.78,2.42a6.24,6.24,0,0,1-1.3.53,6.64,6.64,0,0,1-1.7.18A3.07,3.07,0,0,1,61,55.26Z"/></svg>
