<svg xmlns="http://www.w3.org/2000/svg" viewBox="0 0 56.8164 15.7239"><defs><style>.cls-1{fill:#dd3e28;}</style></defs><title>Asset 7</title><g id="Layer_2" data-name="Layer 2"><g id="dividers"><path class="cls-1" d="M1.4382,10.1844C10.0269,9.93,18.5555,9.1416,27.0893,8.1669c.4571-.0522.8783-.8931.2431-.9685a129.7279,129.7279,0,0,0-26.7317-.08C.0544,7.1674-.3116,8.4045.374,8.4308q13.7826.5279,27.5733.7928c8.2835.17,17.0025,1.097,25.0968-1.0229.6063-.1588.9034-1.4823.0942-1.52a199.344,199.344,0,0,0-35.2,1.3938c-.7443.0971-1.13,1.5-.22,1.599a25.9558,25.9558,0,0,0,8.852-.5409c.6322-.1453.8836-1.4306.1-1.513q-5.074-.5332-10.1483-1.0662l-.3022,1.462c3.7758-.0752,7.5519-.1437,11.3274-.2325a.7825.7825,0,0,0,.7188-.63c1.1105-5.1552-7.9437-6.018-11.4421-6.8643a.5437.5437,0,0,0-.6.7011c1.5157,4.1388,3.01,8.2725,4.4085,12.4535.1854.5545.9643-.0028.8407-.45-.6787-2.4554-1.352-4.9121-2.047-7.3629-.1633-.5757-.9175-.033-.9487.3519a20.4615,20.4615,0,0,0,1.3215,9.3655c.2207.572.8272.046.9711-.2757a47.7631,47.7631,0,0,0,2.5308-7.0715l-1.0682.4042c.7592,1.7544,2.4117,7.5892,5.1113,7.5952,2.7322.0059,4.9707-5.7082,5.8244-7.433l-1.157-.17.607,3.1474c.1531.7939,1.0572.7031,1.2533-.039L35.4633,5.48l-1.0181.5353,2.0422,1.9872a.5131.5131,0,0,0,.4963.0664C38.807,7.1878,38.43,5.7926,39.77,4.593c3.9428-3.529,5.6006,3.39,7.3234,5.0149,3.0351,2.8622,7.2623,1.6813,9.5367-1.41.5333-.7248-.179-2.0906-.8566-1.1656C54.1,9.317,50.77,10.4045,48.3365,8.5319c-1.39-1.07-1.7422-2.663-2.6139-4.0527-.8273-1.319-1.7213-2.702-3.3781-2.9825-3.4891-.5907-4.0954,5.9557-7.0788,3.061-.3811-.37-.9271.1887-1.018.5353l-1.58,6.02,1.2532-.039L33.31,7.9323a.5962.5962,0,0,0-1.157-.17,27.5985,27.5985,0,0,1-1.6374,3.17q-.6666,2.4935-3.0762,1.1965c-2.9742-.3992-3.0485-2.0377-4.1789-4.6273-.2711-.621-.9653.02-1.0682.4042a52.3054,52.3054,0,0,1-2.3887,6.9989l.9711-.2756A18.8181,18.8181,0,0,1,19.44,5.8952l-.9486.3519c.1231.4221,1.2375,5.26,1.6031,5.3984,1.1867.4492.0578-2.12.0273-2.2434-.45-1.8235-1.5279-3.5274-1.9051-5.375-.3639-1.7826-1.15-1.9588.6567-2.2167,1.6363-.2335,7.3114,2.3674,7.1877,3.7139-.1574,1.7133-2.41.9395-3.8537.9576l-5.6859.0712c-.7.0088-1.1248,1.37-.3022,1.462q5.0952.57,10.19,1.14l.1-1.513a24.5129,24.5129,0,0,1-8.5708.4318l-.22,1.599A212.19,212.19,0,0,1,52.8828,8.2245l.0942-1.52c-8.51,2.26-17.9662,1.1863-26.69,1.0282-8.5159-.1544-17.03-.38-25.5442-.62L.5156,8.4247c3.7889-.3732,7.58-.6406,11.3878-.7237q2.8517-.0621,5.7047-.0056,3.8046.0753,7.6005.363.652-1.0128-.7015-.3945A230.05,230.05,0,0,1,1.5794,9.6588c-.2882.01-.528.537-.1412.5256Z" transform="translate(0 -0.276)"/></g></g></svg>