<svg xmlns="http://www.w3.org/2000/svg" viewBox="0 0 56.308 22.6016"><defs><style>.cls-1{fill:#dd3e28;}</style></defs><title>Asset 5</title><g id="Layer_2" data-name="Layer 2"><g id="dividers"><path class="cls-1" d="M2.3912,12.6832a39.3292,39.3292,0,0,1,10.175,1.19c.2527.0746.5869-.3846.2676-.4789a21.5429,21.5429,0,0,0-10.43-.8277c-.0682.0144-.1052.1136-.0124.1166Z" transform="translate(0 -2.8128)"/><path class="cls-1" d="M20.123,17.4312Q11.43,15.9081,2.6551,15.0536c-.2771-.027-.6487.4845-.2782.5425,8.7323,1.3679,17.4817,2.6239,26.22,3.9546a39.4754,39.4754,0,0,0,4.0419.2c-2.4844-.066-4.9743.006-7.4606-.0611-4.9422-.1333-9.8666-.4637-14.7852-.9645l-.3286,1.05a120.72,120.72,0,0,0,18.5415-1.2074c.5615-.0788.918-1.3217.1947-1.37-7.4966-.5047-14.9944-.9943-22.4895-1.5192C5.6245,15.63,5.2049,17.01,5.9736,17.07q11.6412.8947,23.3034.7117c.7328-.0115,1.1176-1.4387.27-1.5207Q15.1724,14.8706.7453,14.454L.5614,16.1048q13.0662.07,26.1324.1345c.9051.0045,1.0176-1.8665-.0122-1.8737-7.5822-.0529-15.1648-.0649-22.7471-.0954l.025,1.8857a209.45,209.45,0,0,1,25.0665-.1918l.2068-2.0779c-7.384.4107-14.76.558-22.1519.299L7.077,16.2369a148.9017,148.9017,0,0,1,41.3848-.2078l.2983-1.7152-4.8487.6561c-.8446.1143-1.07,1.768-.0877,1.77,2.5616.0052,2.3355,1.4768,4.1957,2.73l.5282-1.8458c-3.39-.6416-6.8175-1.09-10.23-1.6l-.2886,1.9831c5.8387.734,11.6208,1.7312,17.3576,3.043l.0163-1.7879a12.8523,12.8523,0,0,1-4.1364,1.2538q-1.4916.0809-2.9831.0461c-.6761.2632-.6362.0064-1.2623.4944a1.1823,1.1823,0,0,0-.261,1.326l.1758.43a.6164.6164,0,0,0,.8335.3152l.2891-.1242c.8381-.36.6231-2.2025-.4014-1.7624a2.4727,2.4727,0,0,0,2.1311,1.2561,9.99,9.99,0,0,0,2.2194-.2526A17.4284,17.4284,0,0,0,55.7648,21c.63-.2725.8067-1.6071.0163-1.7879C50.0006,17.89,44.1956,16.811,38.318,16.024c-1.0034-.1343-1.2911,1.8253-.2886,1.9831,3.3866.5332,6.7712,1.1393,10.1769,1.5316.9.1036,1.2515-1.4132.5281-1.8458l-1.4217-2.5c-.0242-.2744-.3274-.6793-.6519-.5928a5.4976,5.4976,0,0,1-2.7494.37l-.0877,1.77,4.8165-.6935c.6728-.0968,1.1515-1.5975.2983-1.7152A149.6271,149.6271,0,0,0,6.8676,14.2c-.8774.1267-.9609,2.0218-.0039,2.0517,7.3956.23,14.7765.1825,22.1623-.2877,1.0208-.065,1.2926-2.0294.2068-2.0779a211.6454,211.6454,0,0,0-25.2983.384c-.9292.07-.9987,1.8818.025,1.8857,7.578.0291,15.1562.0769,22.7343.0834l-.0122-1.8737q-12.9682.0415-25.9363.0884c-.8037.0029-1.0906,1.629-.1839,1.6508q14.3878.3462,28.7156,1.6764l.27-1.5207q-11.6373.2472-23.2358-.5825L5.9736,17.07c7.4961.4843,14.99,1.0041,22.4847,1.5086l.1947-1.37a104.05,104.05,0,0,1-18.3763,1.5079c-.4491-.0019-.8815,1-.3286,1.05a189.6416,189.6416,0,0,0,24.3552.66c.3158-.0119.6315-.6472.1981-.7075-7.1879-1-14.3627-2.0949-21.5412-3.16-1.9877-.2948-7.2486-1.8789-8.6256-.8.7432-.582,5.0492.5,5.8671.5993q4.91.594,9.7914,1.3874c.1778.0287.3678-.2715.13-.3132Z" transform="translate(0 -2.8128)"/><path class="cls-1" d="M34.7245,6.7643c.1167,0,.1928-.1813.04-.1813-.1167,0-.1928.1813-.04.1813Z" transform="translate(0 -2.8128)"/><path class="cls-1" d="M36.1023,18.189q.201,2.0334.4045,4.0665c.021.2091.42.04.3912-.159q-.2859-1.986-.5745-3.9717c-.0174-.1194-.2315-.04-.2212.0642Z" transform="translate(0 -2.8128)"/><path class="cls-1" d="M35.2348,4.9306l.68-1.2983L35.0086,3.6q.258,7.1623.5384,14.3238c.0831,2.0982-.5549,5.4551.7521,7.27a.5486.5486,0,0,0,.672.1674l.3613-.1843a1.0882,1.0882,0,0,0,.543-1.1372l-.0637-.3611c-.2051-1.1612-1.5061-.3356-1.3612.5814a6.29,6.29,0,0,0,.5757-3.4734q-.0678-1.2459-.1364-2.4918-.1373-2.4942-.2769-4.9883Q36.33,8.244,36.03,3.1825c-.0466-.79-1.0276-.1527-1.0211.4179l.0151,1.3481c.0013.114.1818.0379.2111-.0179Z" transform="translate(0 -2.8128)"/><path class="cls-1" d="M33.0339,6.1963c-.2792,5.3061-.963,10.787-.6942,16.095.0333.6563.8052.214.8586-.2322.6279-5.2562.34-10.7634.4284-16.0512.0063-.3771-.5776-.1018-.5928.1884Z" transform="translate(0 -2.8128)"/></g></g></svg>