<svg xmlns="http://www.w3.org/2000/svg" viewBox="0 0 54.9771 22.903"><defs><style>.cls-1{fill:#dd3e28;}</style></defs><title>Asset 6</title><g id="Layer_2" data-name="Layer 2"><g id="dividers"><path class="cls-1" d="M8.653,10.9574A10.33,10.33,0,0,0,5.64,10.7458a26.7225,26.7225,0,0,1,5.2906-.3249c3.5736-.1707,7.1394-.2648,10.7137-.087.642.032,1.0574-1.2434.3944-1.2461L10.607,9.0412l-.3533,1.355q7.6794.0282,15.359.0559l.2818-1.4991A165.7132,165.7132,0,0,1,2.2367,7.9435L2.0858,9.6379q13.8314-.9462,27.6624-1.8948c.7941-.0545,1.0531-1.8235.1892-1.8607A30.7339,30.7339,0,0,0,17.0969,7.93c-.7385.2894-.7729,1.7029.1211,1.749,7.7718.4007,15.5317,1.11,23.294,1.6622l.0967-1.76A75.5861,75.5861,0,0,0,25.16,11.258c-.6278.1338-1.1886,1.5718-.3019,1.71a108.8466,108.8466,0,0,0,15.9911,1.28c.803.0061,1.0907-1.6091.1856-1.6485q-9.4839-.4137-18.9679-.8263L21.9428,13.5a288.7908,288.7908,0,0,0,33.8016-1.4957c.8716-.09,1.0438-1.8758.0587-1.802-6.2721.47-12.5323,1.0881-18.8014,1.5947-.7.0565-1.1369,1.3665-.2848,1.4939a83.0846,83.0846,0,0,0,13.6048.9119l.3461-1.3713c-1.9956.104-3.987.2135-5.98.3524-.9016.0628-5.0983-.0842-5.8135.4348-2.0172,1.4638,2.99.6069,3.2219.5925,2.356-.1468,4.7142-.2349,7.0729-.3243.513-.0194.8645-1.0482.2244-1.0269q-1.5477.0425-3.0942.12c-.4047.0181-.82.8211-.2729.8364q1.571.0526,3.1427.07l.2244-1.0269c-4.1537.3726-8.3084.6449-12.4718.8793-.4245.0239-.8133.8759-.2692.8578,4.557-.1519,9.1137-.1989,13.67-.3943.6594-.0283,1.1058-1.3755.3461-1.3713a84.044,84.044,0,0,1-13.6661-1.0345l-.2848,1.4939c6.3407-.4536,12.6894-.7965,19.0275-1.2866l.0587-1.802a287.8782,287.8782,0,0,1-33.7362,1.57c-.8409-.01-1.07,1.69-.1241,1.7275q9.4532.3756,18.9064.7473l.1856-1.6485a102.4933,102.4933,0,0,1-15.697-1.3233l-.3018,1.71A75.8345,75.8345,0,0,1,40.512,11.341c.8665-.0032,1.0476-1.69.0967-1.76-7.7114-.5639-15.4465-.9589-23.1439-1.69L17.4,9.6283A32.8094,32.8094,0,0,1,29.5548,7.7377l.1892-1.8606Q15.99,6.909,2.2367,7.9435c-.8325.0626-1.072,1.5946-.1509,1.6944a160.6382,160.6382,0,0,0,23.5269.8142c.7251-.0279,1.1083-1.5039.2818-1.4991q-7.6437.0438-15.2875.0882c-.67.0039-1.0906,1.359-.3533,1.355l11.39-.0623.2593-1.2447c-5.9943.3273-11.9743.5072-17.9553,1.07-.3244.03-.6455.664-.1933.7362l4.6118.7362c.3484.0556.726-.5977.2864-.6742Z" transform="translate(-1.4956 -0.0019)"/><path class="cls-1" d="M19.4125.1736c.7391,3.3089,1.4845,6.6156,2.2036,9.9289.0568.2613.3706.2831.5623.1657C23.4116,9.5127,25.06,7.1227,26.4543,8.79a.3633.3633,0,0,0,.3265.1335,1.1634,1.1634,0,0,0,1.0962-.8226.5859.5859,0,0,0-.0615-.7677L27.6,7.14c-.4437-.3973-.8884.5326-.806.8659a30.1138,30.1138,0,0,0,3.0111,7.65c.2479.4436.7947.1987.9681-.1834q1.4576-3.211,2.9145-6.4223l-1.0455.2718q2.316,5.2291,4.6789,10.4367c.341.7556,1.166-.2376,1.1435-.7066a43.5311,43.5311,0,0,0-2.436-12.4344l-.91.5657a168.39,168.39,0,0,0,7.6709,15.56c.2876.5,1.0215-.28.7962-.7236-2.5913-5.1014-5.2286-10.1718-7.5576-15.4018-.2694-.605-1.0643.0693-.91.5657a47.5879,47.5879,0,0,1,2.1093,12.2353l1.1435-.7067q-2.33-5.1952-4.6862-10.3784c-.25-.5481-.893-.0776-1.0455.2719q-1.3953,3.1983-2.79,6.3968l.9681-.1834a29.27,29.27,0,0,1-3.0657-7.4848l-.806.8659c-1.3242-1.1476-.35-2.0894-2.4093-1.4468-.8482.2647-1.12,1.8023-2.4988,1.276C21.231,7.7212,20.0235,1.167,19.7036.0759c-.0453-.1544-.322-.04-.2911.0977Z" transform="translate(-1.4956 -0.0019)"/><path class="cls-1" d="M39.612,4.7406a44.1577,44.1577,0,0,0,6.2806,12.622c.3537.4985,1.1558-.3681.82-.81A49.0322,49.0322,0,0,1,40.0965,4.5077c-.1029-.2656-.5576-.005-.4845.2329Z" transform="translate(-1.4956 -0.0019)"/></g></g></svg>