<svg xmlns="http://www.w3.org/2000/svg" viewBox="0 0 55.3142 19.3025"><defs><style>.cls-1{fill:#dd3e28;}</style></defs><title>Asset 4</title><g id="Layer_2" data-name="Layer 2"><g id="dividers"><path class="cls-1" d="M7.5618,14.4748c1.2793-.9513,2.5552-1.8943,3.8069-2.8817.3068-.2421.5474-1.2587-.1386-1.1132A68.8448,68.8448,0,0,1,.7409,11.8944L.4827,13.4338c5.2569-.4656,10.449-1.194,15.6371-2.16.7578-.1411,1.0823-1.7636.1894-1.643L3.2968,11.388l-.19,1.6431a93.964,93.964,0,0,1,11.4568-1.3064c.7741-.04,1.1063-1.5864.2121-1.611a36.6931,36.6931,0,0,0-7.1508.4706c-.6617.11-1.1615,1.59-.2968,1.7173a111.3058,111.3058,0,0,0,30.5233-.0663c.6842-.0894,1.1426-1.5181.2735-1.5138-3.5462.0174-7.0891-.0161-10.6362.03l-.1248,1.7266q13.62-.6092,27.1988-1.8119c.74-.0656,1.1266-1.5246.2352-1.5762C40.9553,8.2879,27.12,7.6179,13.2548,7.3367c-.973-.02-1.3251,1.7841-.3132,1.9518A252.0672,252.0672,0,0,0,43.0809,12.211l.0657-1.7943c-12.0572.22-24.104.1744-36.1624.0777L6.8128,12.61l39.4935-1.9917L46.42,8.4458Q37.5359,9.041,28.654,9.6683c-2.3092.1633-7.3469-.44-9.2372,1.2042a1.202,1.202,0,0,0-.2309,1.3677l.1821.3465a.6246.6246,0,0,0,.6574.3734l.3212-.0874c.8579-.2334,1.0062-2.084-.0247-1.8853q.0384,2.1683,2.2385,1.2038l3.9627-.2568,5.9444-.3855q6.9206-.4488,13.8388-.9308c1.1-.0754,1.21-2.2293.1139-2.1723Q26.7021,9.47,6.9842,10.4944c-1.0582.055-1.2574,2.1083-.1714,2.1154,12.0845.0794,24.1929.1645,36.2681-.3988.88-.0411,1.0423-1.7628.0657-1.7943a238.449,238.449,0,0,1-29.8918-3.08l-.3132,1.9518c13.8776.1255,27.77.5,41.6216,1.3773L54.7984,9.09q-13.6377,1.1266-27.3092,1.6615c-.84.0329-1.0717,1.7388-.1248,1.7266,3.4983-.045,6.9908-.1693,10.4875-.2424l.2735-1.5138a121.3285,121.3285,0,0,1-30.3213-.12l-.2969,1.7173a30.4827,30.4827,0,0,1,7.0569-.5941l.2121-1.611A90.5257,90.5257,0,0,0,3.2968,11.388c-.7652.1348-1.0777,1.763-.19,1.6431L16.12,11.2737l.1894-1.643c-5.1615.9611-10.3483,1.7029-15.5683,2.2637-.7325.0787-1.0974,1.6019-.2582,1.5394A59.9521,59.9521,0,0,0,11.1,11.7133L10.9617,10.6c-1.2867,1.0956-2.54,2.2208-3.7937,3.3545-.3438.3109-.0125.8224.3938.52Z" transform="translate(0 -1.3633)"/><path class="cls-1" d="M29.0566,5.0488c.9871,4.92,2.244,9.58,2.4691,14.6364.0386.8683,1.06.5861,1.1678-.1169a61.2741,61.2741,0,0,0,.3846-14.9514c-.0946-1.02-1.32-.5-1.34.31-.0794,3.2244-.3263,6.4142-.2282,9.6449.0146.4815.434.734.83.4006a14.8162,14.8162,0,0,0,4.0708-5.3736c.2988-.655-.597-.9267-.8939-.3238a13.6472,13.6472,0,0,1-3.6917,4.6441l.83.4005a49.7581,49.7581,0,0,1,.4284-9.4837l-1.34.31a69.7634,69.7634,0,0,1-.1969,14.3534l1.1678-.1168c-.3937-4.805-1.0852-10.18-3.2527-14.5566-.0961-.1939-.4392.0526-.4049.2237Z" transform="translate(0 -1.3633)"/><path class="cls-1" d="M37.2759,6.0187c-.0749,3.9614-.1535,7.9229-.2087,11.8847l.9717-.5139A20.0255,20.0255,0,0,1,37.59,12.53c.0234-.84-1.0264-.5192-1.0381.147a22.43,22.43,0,0,0,.54,5.3551c.1523.6813.9719-.1063.9717-.5139-.0023-3.91-.0316-7.8192-.05-11.7288-.0021-.4414-.7324-.1127-.7388.229Z" transform="translate(0 -1.3633)"/><path class="cls-1" d="M37.5533,6.1241c.1947,0,.3989-.3477.1354-.3477-.1946,0-.3989.3477-.1354.3477Z" transform="translate(0 -1.3633)"/><path class="cls-1" d="M23.922,14.021a41.5641,41.5641,0,0,1-9.0451-1.39c-3.0354-.87-3.3247-.4139-3.1341-4.235.1729-3.4673.8085-4.2348,4.105-5.519.9133-.3557,3.7564-.97,4.1594.5948.1521.5907-2.45,3.2074-2.8892,3.7318a59.0621,59.0621,0,0,1-5.257,5.4415c-.2437.2248-.4885.6663-.2246.9792,3.6973,4.3839,10.31,8.0517,16.2531,6.7889,4.6-.9774,4.1488-5.6651,2.9974-9.2179-.243-.75-1.21.2377-1.016.8483a11.7924,11.7924,0,0,1,.7385,3.8844l-4.246,3.2549a11.1862,11.1862,0,0,1-3.7533-.4c-2.6561-.5556-6.7823-2.0547-8.4828-4.3514-1.0977-1.4825-.8928-1.25.28-2.8567.8062-1.1042,1.9529-2.0465,2.8431-3.089a63.4128,63.4128,0,0,0,4.2751-5.6792c.1326-.196.2129-.5894-.0387-.7379C17.5955-.2274,10.152,3.449,8.97,7.8066c-1.71,6.3056,11.5848,6.2238,14.8579,6.3944.1032.0054.2366-.1715.0937-.18Z" transform="translate(0 -1.3633)"/></g></g></svg>