<svg version="1" xmlns="http://www.w3.org/2000/svg" width="684" height="684" viewBox="0 0 513.000000 513.000000"><path d="M260.7 5.6c-.1.1-4.5.4-9.7.8-5.2.3-11 .8-12.8 1.1-10.2 1.4-14.5 2-19.2 3-1.4.3-4.1.8-6 1.1-5.1.9-27.1 7.1-35.1 9.9-23.8 8.3-50.9 23.7-68.4 38.8-26.1 22.7-45.4 47.4-60 77.2-10.3 21-18 44.9-20.9 65-.7 4.3-1.3 8.2-2.1 13-1.3 8-2 22.1-2 43 0 20 1 40.8 2 42.5.2.3.6 2.9.9 5.8.3 3 .8 5.7 1 6 .2.4.7 2.7 1 5.2 3.1 23 16.4 58.7 30.6 82 10.6 17.3 28.1 37.8 45.5 53.1 15.4 13.5 39.6 28.6 58.5 36.4 11.3 4.6 29.1 10.6 35.5 11.9 12.5 2.6 23.3 4.3 33.6 5.3 15.2 1.6 67.3.8 80.4-1.1 62.5-9.3 114.8-38.6 157.3-87.9l3.3-3.9-2.8-2.1c-1.5-1.2-9.8-8-18.3-15.2-8.5-7.1-16.6-13.9-17.9-15-1.3-1.1-2.9-2.5-3.5-3-.6-.6-7.7-6.5-15.7-13.1l-14.5-12.2-2.3 3.3c-3.4 5.1-20.7 21.5-29.1 27.7-33.3 24.5-69.4 34.9-109.6 31.4-8.5-.7-9.7-.9-17.9-2.6-8.5-1.8-9.2-1.9-18.1-5.1-29.2-10.3-50.9-26.4-69.2-51.1-9.3-12.8-19.5-35.4-24-53.3-2.3-8.8-3-12.9-4.7-27-.7-5.4-.7-31 0-36 .2-1.7.6-5.3.9-8 .3-2.8.8-6.1 1.1-7.5.3-1.4.8-4.1 1.1-6 2-12.9 9-32.7 16.6-47 14.3-26.9 34-46.1 61.3-59.7 21.5-10.8 39.8-14.8 68-14.8 15.8 0 22.3.5 31.3 2.6 2.6.6 5.4 1.2 6.2 1.4 6.1 1.3 20.3 6.8 29.5 11.5 22.2 11.3 40.2 25.2 55.8 42.9 1.5 1.7 3.1 3.1 3.5 3.1.7 0 8.5-6.4 20.2-16.4 1.4-1.1 6.3-5.2 11-9.1 4.7-3.8 8.7-7.2 9-7.5.3-.4 7.6-6.5 16.2-13.7l15.6-13-3-3.9c-1.7-2.2-8.8-9.5-15.7-16.4-13-12.9-26.2-23.8-38.6-31.7-3.8-2.5-8.1-5.3-9.5-6.2-5.7-3.6-23.7-12.7-32.5-16.4-11.9-4.9-36.8-12.2-48.5-14.3-2.5-.4-4.7-.8-5-.9-.3-.1-3-.5-6-.9-3-.5-6.3-1-7.3-1.2-6.7-1.2-45.8-2.8-47-1.8z"/></svg>